<?xml version="1.0" standalone="no"?>
<!DOCTYPE svg PUBLIC "-//W3C//DTD SVG 1.1//EN" "http://www.w3.org/Graphics/SVG/1.1/DTD/svg11.dtd" >
<svg>
	<metadata>Created by FontForge 20090622 at Thu Mar 24 05:40:42 2016  By deploy user Copyright &#194;&#169; 2015 by Ren&#195;&#169; Bieder. All rights reserved.</metadata>
	<defs>
		<font id="VIC-SemiBold" horiz-adv-x="610" >
			<font-face  font-family="VIC SemiBold" font-weight="600" font-stretch="normal" units-per-em="1000" panose-1="0 0 7 0 0 0 0 0 0 0" ascent="800" descent="-200" x-height="499" cap-height="670" bbox="-399 -212 1212 945" underline-thickness="50" underline-position="-50" unicode-range="U+0020-U+FB02" />
			<missing-glyph horiz-adv-x="769"  d="M385 684q144 0 246 -100t102 -251q0 -149 -102 -248.5t-246 -99.5q-145 0 -247 99.5t-102 248.5q0 151 102 251t247 100zM385 629q-120 0 -204.5 -84t-84.5 -211q0 -126 84.5 -210t204.5 -84q119 0 203.5 84t84.5 210t-84.5 210.5t-203.5 84.5zM518 399q0 -42 -29 -69.5 t-78 -33.5v-31h-67v86h42q27 0 44 13.5t17 34.5q0 25 -17 40.5t-44 15.5q-29 0 -47.5 -17t-23.5 -46l-70 13q3 47 43 81t98 34q59 0 95.5 -33.5t36.5 -87.5zM376 223q19 0 31.5 -12.5t12.5 -29.5q0 -19 -12.5 -31.5t-31.5 -12.5t-31 12.5t-12 31.5q0 17 12.5 29.5t30.5 12.5 z" />
			<glyph glyph-name="fi" unicode="fi" horiz-adv-x="645"  d="M568 499v-499h-132v391h-208v-391h-132v391h-91v108h91v45q0 87 54.5 138t145.5 51q47 0 89 -18l-29 -107q-29 8 -51 8q-35 0 -56 -18.5t-21 -53.5v-45h340zM502 571q-35 0 -57.5 22t-22.5 55q0 32 23 55.5t57 23.5t57 -23.5t23 -55.5q0 -33 -23 -55t-57 -22z" />
			<glyph glyph-name="fl" unicode="fl" horiz-adv-x="641"  d="M302 616q-33 0 -53.5 -19t-20.5 -53v-45h136v-108h-136v-391h-132v391h-91v108h91v45q0 87 54 138t143 51q48 0 89 -19l-30 -107q-27 9 -50 9zM439 720h132v-720h-132v720z" />
			<glyph glyph-name=".notdef" horiz-adv-x="769"  d="M385 684q144 0 246 -100t102 -251q0 -149 -102 -248.5t-246 -99.5q-145 0 -247 99.5t-102 248.5q0 151 102 251t247 100zM385 629q-120 0 -204.5 -84t-84.5 -211q0 -126 84.5 -210t204.5 -84q119 0 203.5 84t84.5 210t-84.5 210.5t-203.5 84.5zM518 399q0 -42 -29 -69.5 t-78 -33.5v-31h-67v86h42q27 0 44 13.5t17 34.5q0 25 -17 40.5t-44 15.5q-29 0 -47.5 -17t-23.5 -46l-70 13q3 47 43 81t98 34q59 0 95.5 -33.5t36.5 -87.5zM376 223q19 0 31.5 -12.5t12.5 -29.5q0 -19 -12.5 -31.5t-31.5 -12.5t-31 12.5t-12 31.5q0 17 12.5 29.5t30.5 12.5 z" />
			<glyph glyph-name=".null" horiz-adv-x="0"   />
			<glyph glyph-name="nonmarkingreturn" horiz-adv-x="333"   />
			<glyph glyph-name="space" unicode=" " horiz-adv-x="243"   />
			<glyph glyph-name="exclam" unicode="!" horiz-adv-x="288"  d="M72 670h145v-31l-5 -420h-135l-5 420v31zM144 149q34 0 56.5 -23t22.5 -54q0 -32 -22.5 -54t-56.5 -22t-56.5 22t-22.5 54q0 31 22.5 54t56.5 23z" />
			<glyph glyph-name="quotedbl" unicode="&#x22;" horiz-adv-x="424"  d="M184 372h-134v298h134v-298zM374 372h-134v298h134v-298z" />
			<glyph glyph-name="numbersign" unicode="#" horiz-adv-x="693"  d="M643 390h-102l-31 -127h106l-31 -110h-102l-38 -153h-116l38 153h-128l-38 -153h-116l38 153h-106l30 110h103l31 127h-105l29 110h103l42 170h116l-42 -170h128l42 170h116l-42 -170h106zM394 263l31 127h-128l-31 -127h128z" />
			<glyph glyph-name="dollar" unicode="$" horiz-adv-x="604"  d="M554 206q0 -76 -49.5 -127t-135.5 -65v-114h-112v112q-75 9 -129 46t-74 99l128 51q20 -61 80 -80v159l-29 6q-164 33 -164 180q0 75 50.5 125t137.5 62v110h112v-113q123 -25 169 -127l-121 -41q-19 35 -53 51v-149l26 -5q78 -18 121 -63.5t43 -116.5zM202 476 q0 -25 13.5 -40t46.5 -24v135q-60 -19 -60 -71zM364 126q65 17 65 73q0 53 -65 67v-140z" />
			<glyph glyph-name="percent" unicode="%" horiz-adv-x="833"  d="M208 685q70 0 118.5 -45t48.5 -117t-49 -117t-118 -45q-70 0 -119 45t-49 117t49 117t119 45zM211 0h-87l491 670h87zM208 595q-28 0 -48.5 -19.5t-20.5 -51.5q0 -34 20.5 -53.5t48.5 -19.5q27 0 47.5 19.5t20.5 53.5q0 32 -20.5 51.5t-47.5 19.5zM626 309 q70 0 118.5 -45t48.5 -117t-49 -117t-118 -45q-70 0 -119 45t-49 117t49 117t119 45zM626 219q-28 0 -48.5 -19.5t-20.5 -51.5q0 -34 20.5 -53.5t48.5 -19.5q27 0 47.5 19.5t20.5 53.5q0 32 -20.5 51.5t-47.5 19.5z" />
			<glyph glyph-name="ampersand" unicode="&#x26;" horiz-adv-x="700"  d="M748 0h-179l-57 50q-78 -65 -195 -65q-120 0 -193.5 58t-73.5 154q0 108 114 169q-48 62 -48 134q0 82 60.5 133.5t152.5 51.5t147 -52t67 -139l-124 -22q-7 102 -90 102q-38 0 -62 -20t-24 -57q0 -32 18 -59t69 -71l159 -139q9 30 9 70v51h117v-51q0 -89 -31 -154z M317 96q58 0 105 34l-180 159q-63 -36 -63 -92q0 -46 38 -73.5t100 -27.5z" />
			<glyph glyph-name="quotesingle" unicode="'" horiz-adv-x="234"  d="M184 372h-134v298h134v-298z" />
			<glyph glyph-name="parenleft" unicode="(" horiz-adv-x="366"  d="M326 672q-80 -84 -112 -162t-32 -175q0 -96 32 -174t112 -162l-93 -81q-193 174 -193 417t193 419z" />
			<glyph glyph-name="parenright" unicode=")" horiz-adv-x="366"  d="M133 754q193 -176 193 -419t-193 -417l-93 81q80 84 112 162t32 174q0 97 -32 175t-112 162z" />
			<glyph glyph-name="asterisk" unicode="*" horiz-adv-x="447"  d="M412 597l-108 -62l108 -63l-40 -70l-103 60v-113h-91v113l-103 -60l-40 70l108 63l-108 62l40 71l103 -60v112h91v-112l103 60z" />
			<glyph glyph-name="plus" unicode="+" horiz-adv-x="580"  d="M520 363v-116h-172v-176h-116v176h-172v116h172v176h116v-176h172z" />
			<glyph glyph-name="comma" unicode="," horiz-adv-x="252"  d="M222 133l-113 -265h-99l60 268h152v-3z" />
			<glyph glyph-name="hyphen" unicode="-" horiz-adv-x="448"  d="M388 312v-114h-328v114h328z" />
			<glyph glyph-name="period" unicode="." horiz-adv-x="238"  d="M119 149q34 0 56.5 -23t22.5 -54q0 -32 -22.5 -54t-56.5 -22t-56.5 22t-22.5 54q0 31 22.5 54t56.5 23z" />
			<glyph glyph-name="slash" unicode="/" horiz-adv-x="418"  d="M298 741h110l-288 -813h-110z" />
			<glyph glyph-name="zero" unicode="0" horiz-adv-x="666"  d="M333 685q129 0 208.5 -97t79.5 -253q0 -157 -79.5 -253.5t-208.5 -96.5t-208.5 96.5t-79.5 253.5q0 156 79.5 253t208.5 97zM333 110q68 0 109 62t41 163t-41 163t-109 62t-109 -62t-41 -163t41 -163t109 -62z" />
			<glyph glyph-name="one" unicode="1" horiz-adv-x="370"  d="M211 670h84v-670h-132v511l-165 -85v121z" />
			<glyph glyph-name="two" unicode="2" horiz-adv-x="523"  d="M235 123h253v-123h-456v88l226 224l15.5 15.5l17 17t15.5 16.5t15.5 19l12 19.5t11 23t6 23.5t2.5 27q0 42 -27.5 68.5t-71.5 26.5q-101 0 -110 -123l-124 26q4 98 68.5 156t167.5 58q101 0 164.5 -58t63.5 -151q0 -66 -33.5 -120t-112.5 -132z" />
			<glyph glyph-name="three" unicode="3" horiz-adv-x="571"  d="M441 337q40 -17 62.5 -53.5t22.5 -84.5q0 -96 -65.5 -155t-171.5 -59q-105 0 -172.5 58t-75.5 154l127 25q16 -119 121 -119q49 0 81 26.5t32 68.5q0 38 -26 59.5t-75 21.5h-97v118h89q47 0 72.5 21t25.5 58q0 41 -28 65.5t-74 24.5q-49 0 -80 -30t-35 -91l-124 25 q8 96 73 155.5t166 59.5q102 0 164.5 -58t62.5 -151q0 -99 -75 -139z" />
			<glyph glyph-name="four" unicode="4" horiz-adv-x="616"  d="M590 245v-110h-83v-135h-132v135h-355v125l307 410h180v-425h83zM169 245h206v293z" />
			<glyph glyph-name="five" unicode="5" horiz-adv-x="556"  d="M278 433q106 0 175 -61t69 -158q0 -103 -68.5 -166t-175.5 -63q-97 0 -166.5 46.5t-86.5 132.5l131 35q22 -92 122 -92q46 0 77 29.5t31 77.5q0 43 -31 70.5t-77 27.5h-235l41 358h411v-123h-296l-13 -114h92z" />
			<glyph glyph-name="six" unicode="6" horiz-adv-x="611"  d="M332 434q107 0 170.5 -61.5t63.5 -159.5q0 -99 -69 -163.5t-177 -64.5q-126 0 -200.5 90t-74.5 250q0 190 90 283q75 77 187 77q86 0 146.5 -41.5t81.5 -117.5l-130 -25q-21 65 -103 65q-55 0 -94 -42q-51 -55 -51 -157q61 67 160 67zM317 106q45 0 79 31t34 78t-34 77.5 t-79 30.5q-44 0 -76.5 -30.5t-32.5 -79.5q0 -47 32.5 -77t76.5 -30z" />
			<glyph glyph-name="seven" unicode="7" horiz-adv-x="503"  d="M483 670v-97l-270 -573h-149l265 547h-314v123h468z" />
			<glyph glyph-name="eight" unicode="8" horiz-adv-x="566"  d="M411 339q59 -21 92 -63.5t33 -94.5q0 -87 -69.5 -141.5t-182.5 -54.5q-114 0 -184 54.5t-70 141.5q0 52 33 94t93 64q-105 46 -105 162q0 83 64 133.5t169 50.5q104 0 168 -50.5t64 -133.5q0 -55 -27 -97.5t-78 -64.5zM282 576q-40 0 -68 -23t-28 -64t27.5 -63t68.5 -22 t70.5 23t29.5 64q0 40 -29.5 62.5t-70.5 22.5zM282 98q44 0 75 24.5t31 67.5t-31 66.5t-75 23.5q-43 0 -72.5 -24t-29.5 -68q0 -43 29 -66.5t73 -23.5z" />
			<glyph glyph-name="nine" unicode="9" horiz-adv-x="611"  d="M291 685q126 0 200.5 -90t74.5 -250q0 -190 -90 -283q-75 -77 -187 -77q-86 0 -146.5 41.5t-81.5 117.5l130 25q21 -65 103 -65q55 0 94 42q51 55 51 157q-61 -67 -160 -67q-107 0 -170.5 61.5t-63.5 159.5q0 99 69 163.5t177 64.5zM294 347q44 0 76.5 30.5t32.5 79.5 q0 47 -32.5 77t-76.5 30q-45 0 -79 -31t-34 -78t34 -77.5t79 -30.5z" />
			<glyph glyph-name="colon" unicode=":" horiz-adv-x="238"  d="M119 485q34 0 56.5 -23t22.5 -54q0 -32 -22.5 -54t-56.5 -22t-56.5 22t-22.5 54q0 31 22.5 54t56.5 23zM119 149q34 0 56.5 -23t22.5 -54q0 -32 -22.5 -54t-56.5 -22t-56.5 22t-22.5 54q0 31 22.5 54t56.5 23z" />
			<glyph glyph-name="semicolon" unicode=";" horiz-adv-x="270"  d="M151 485q34 0 56.5 -23t22.5 -54q0 -32 -22.5 -54t-56.5 -22t-56.5 22t-22.5 54q0 31 22.5 54t56.5 23zM222 133l-113 -265h-99l60 268h152v-3z" />
			<glyph glyph-name="less" unicode="&#x3c;" horiz-adv-x="449"  d="M412 254v-137l-379 141v140l379 143v-140l-226 -72z" />
			<glyph glyph-name="equal" unicode="=" horiz-adv-x="580"  d="M520 478v-115h-460v115h460zM520 280v-115h-460v115h460z" />
			<glyph glyph-name="greater" unicode="&#x3e;" horiz-adv-x="449"  d="M40 254l226 75l-226 72v140l379 -143v-140l-379 -141v137z" />
			<glyph glyph-name="question" unicode="?" horiz-adv-x="495"  d="M243 685q94 0 150.5 -51.5t56.5 -137.5q0 -143 -167 -186v-85h-121v166h4q156 14 156 104q0 35 -21.5 54t-58.5 19q-69 0 -119 -63l-103 64q31 51 90 83.5t133 32.5zM221 149q34 0 56.5 -23t22.5 -54q0 -32 -22.5 -54t-56.5 -22t-56.5 22t-22.5 54q0 31 22.5 54t56.5 23z " />
			<glyph glyph-name="at" unicode="@" horiz-adv-x="943"  d="M578 473h86v-283q0 -24 17 -38.5t40 -14.5q43 0 65.5 51t22.5 115q0 134 -96 219.5t-236 85.5q-147 0 -245 -95.5t-98 -239.5q0 -143 97 -238t237 -95q136 0 244 81l43 -68q-53 -43 -130 -67.5t-155 -24.5q-176 0 -298 116.5t-122 294.5t122.5 295.5t304.5 117.5 q173 0 294.5 -107.5t121.5 -268.5q0 -44 -10 -86t-30.5 -79.5t-58 -60t-87.5 -22.5q-86 0 -116 60q-51 -59 -140 -59q-88 0 -146 57.5t-58 150.5q0 95 58.5 152.5t144.5 57.5q77 0 128 -49v42zM463 149q47 0 81 33.5t34 88.5t-34 87.5t-81 32.5q-46 0 -80 -32.5t-34 -87.5 q0 -56 34 -89t80 -33z" />
			<glyph glyph-name="A" unicode="A" horiz-adv-x="677"  d="M404 670l273 -670h-147l-54 143h-275l-54 -143h-147l273 670h131zM248 266h181l-90 239z" />
			<glyph glyph-name="B" unicode="B" horiz-adv-x="659"  d="M500 342q46 -6 81.5 -47.5t35.5 -108.5q0 -85 -54 -135.5t-162 -50.5h-331v670h330q90 0 144 -51t54 -135q0 -58 -31 -95t-67 -43v-4zM385 554h-179v-164h170q41 0 65.5 23.5t24.5 62.5q0 34 -23.5 56t-57.5 22zM386 116q45 0 68.5 22.5t23.5 60.5t-24 60.5t-63 22.5 h-185v-166h180z" />
			<glyph glyph-name="C" unicode="C" horiz-adv-x="733"  d="M566 214l125 -53q-41 -84 -120.5 -130t-178.5 -46q-148 0 -250 101t-102 249q0 147 102 248.5t250 101.5q90 0 165 -39t120 -109l-121 -63q-55 83 -164 83q-91 0 -153 -63.5t-62 -158.5t62.5 -159t152.5 -64q122 0 174 102z" />
			<glyph glyph-name="D" unicode="D" horiz-adv-x="725"  d="M317 670q166 0 267 -92.5t101 -242.5t-101 -242.5t-267 -92.5h-247v670h247zM317 123q105 0 168 57.5t63 154.5t-63 154.5t-168 57.5h-111v-424h111z" />
			<glyph glyph-name="E" unicode="E" horiz-adv-x="634"  d="M206 123h373v-123h-509v670h507v-123h-371v-151h342v-121h-342v-152z" />
			<glyph glyph-name="F" unicode="F" horiz-adv-x="595"  d="M570 547h-364v-164h325v-123h-325v-260h-136v670h500v-123z" />
			<glyph glyph-name="G" unicode="G" horiz-adv-x="776"  d="M733 391q3 -35 3 -58q0 -150 -96 -249t-244 -99q-150 0 -253 101t-103 249q0 147 104 248.5t252 101.5q79 0 147 -30t114 -85l-112 -77q-55 64 -149 64q-91 0 -154.5 -64t-63.5 -158q0 -95 64 -159t158 -64q76 0 130 41.5t71 113.5h-175v124h307z" />
			<glyph glyph-name="H" unicode="H" horiz-adv-x="732"  d="M526 670h136v-670h-136v275h-320v-275h-136v670h136v-272h320v272z" />
			<glyph glyph-name="I" unicode="I" horiz-adv-x="276"  d="M206 670v-670h-136v670h136z" />
			<glyph glyph-name="J" unicode="J" horiz-adv-x="596"  d="M396 670h136v-433q0 -110 -72 -181t-188 -71q-106 0 -173.5 60t-83.5 159l129 26q7 -55 40 -89t88 -34t89.5 37t34.5 93v433z" />
			<glyph glyph-name="K" unicode="K" horiz-adv-x="643"  d="M332 334l311 -334h-181l-242 268h-14v-268h-136v670h136v-279h14l250 279h154z" />
			<glyph glyph-name="L" unicode="L" horiz-adv-x="592"  d="M206 123h346v-123h-482v670h136v-547z" />
			<glyph glyph-name="M" unicode="M" horiz-adv-x="846"  d="M658 670h118v-670h-132v424l-190 -256h-61l-191 256v-424h-132v670h119l234 -325z" />
			<glyph glyph-name="N" unicode="N" horiz-adv-x="761"  d="M555 670h136v-670h-114l-371 430v-430h-136v670h114l371 -442v442z" />
			<glyph glyph-name="O" unicode="O" horiz-adv-x="786"  d="M393 685q148 0 250.5 -102t102.5 -249q0 -146 -102.5 -247.5t-250.5 -101.5t-250.5 101.5t-102.5 247.5q0 147 102.5 249t250.5 102zM393 113q91 0 153.5 63t62.5 158t-62.5 159t-153.5 64t-153.5 -64t-62.5 -159t62.5 -158t153.5 -63z" />
			<glyph glyph-name="P" unicode="P" horiz-adv-x="665"  d="M382 670q114 0 181 -61.5t67 -163.5q0 -103 -66.5 -164.5t-181.5 -61.5h-176v-219h-136v670h312zM382 342q54 0 83.5 28t29.5 75q0 46 -29.5 74t-83.5 28h-176v-205h176z" />
			<glyph glyph-name="Q" unicode="Q" horiz-adv-x="786"  d="M786 0h-165l-37 39q-87 -54 -191 -54q-148 0 -250.5 101.5t-102.5 247.5q0 147 102.5 249t250.5 102t250.5 -102t102.5 -249q0 -121 -73 -215zM393 113q53 0 99 23l-127 134h165l49 -52q30 52 30 116q0 95 -62.5 159t-153.5 64t-153.5 -64t-62.5 -159t62.5 -158 t153.5 -63z" />
			<glyph glyph-name="R" unicode="R" horiz-adv-x="674"  d="M462 227l182 -227h-171l-159 216h-108v-216h-136v670h306q113 0 184 -62.5t71 -164.5q0 -80 -45.5 -137.5t-123.5 -78.5zM206 547v-208h170q52 0 86 29t34 75t-34 75t-86 29h-170z" />
			<glyph glyph-name="S" unicode="S" horiz-adv-x="641"  d="M325 -15q-98 0 -172 40.5t-99 117.5l138 55q32 -94 146 -94q57 0 88 24t31 61q0 30 -17.5 47t-60.5 26l-132 27q-176 35 -176 192q0 91 69 147.5t186 56.5q86 0 151.5 -37.5t96.5 -104.5l-130 -43q-17 32 -49 50t-72 18q-49 0 -79 -24t-30 -59q0 -54 67 -68l134 -29 q84 -18 130 -67t46 -125q0 -97 -73 -154t-193 -57z" />
			<glyph glyph-name="T" unicode="T" horiz-adv-x="622"  d="M602 670v-123h-223v-547h-136v547h-223v123h582z" />
			<glyph glyph-name="U" unicode="U" horiz-adv-x="711"  d="M511 670h136v-370q0 -141 -79 -228t-209 -87q-133 0 -214 87t-81 228v370h136v-370q0 -84 43.5 -134.5t115.5 -50.5q68 0 110 50.5t42 134.5v370z" />
			<glyph glyph-name="V" unicode="V" horiz-adv-x="729"  d="M569 670h150l-289 -670h-131l-289 670h150l204 -488z" />
			<glyph glyph-name="W" unicode="W" horiz-adv-x="962"  d="M809 670h143l-195 -670h-146l-130 452l-131 -452h-145l-195 670h142l128 -462l135 462h131l135 -462z" />
			<glyph glyph-name="X" unicode="X" horiz-adv-x="662"  d="M652 670l-218 -334l218 -336h-166l-155 245l-155 -245h-166l217 336l-217 334h165l156 -243l156 243h165z" />
			<glyph glyph-name="Y" unicode="Y" horiz-adv-x="691"  d="M681 670l-270 -456v-214h-136v212l-265 458h150l183 -316l182 316h156z" />
			<glyph glyph-name="Z" unicode="Z" horiz-adv-x="625"  d="M240 116h343v-116h-536v87l356 467h-346v116h519v-103z" />
			<glyph glyph-name="bracketleft" unicode="[" horiz-adv-x="405"  d="M365 628h-168v-597h168v-113h-295v823h295v-113z" />
			<glyph glyph-name="backslash" unicode="\" horiz-adv-x="418"  d="M120 741l288 -813h-110l-288 813h110z" />
			<glyph glyph-name="bracketright" unicode="]" horiz-adv-x="405"  d="M335 741v-823h-295v113h168v597h-168v113h295z" />
			<glyph glyph-name="asciicircum" unicode="^" horiz-adv-x="444"  d="M222 564l-87 -133h-115l155 239h94l155 -239h-115z" />
			<glyph glyph-name="underscore" unicode="_" horiz-adv-x="540"  d="M520 -56v-109h-500v109h500z" />
			<glyph glyph-name="grave" unicode="`" horiz-adv-x="600"  d="M144 711h155l66 -144h-112z" />
			<glyph glyph-name="a" unicode="a" horiz-adv-x="642"  d="M440 499h132v-499h-132v39q-67 -54 -165 -54q-99 0 -172 75t-73 189t73.5 189.5t171.5 75.5q99 0 165 -55v40zM298 100q56 0 99 41.5t43 107.5t-43 108t-99 42q-61 0 -100.5 -41t-39.5 -109t39.5 -108.5t100.5 -40.5z" />
			<glyph glyph-name="b" unicode="b" horiz-adv-x="642"  d="M367 514q98 0 171.5 -75.5t73.5 -189.5t-73 -189t-172 -75q-98 0 -165 54v-39h-132v720h132v-261q66 55 165 55zM344 100q61 0 100.5 40.5t39.5 108.5t-39.5 109t-100.5 41q-56 0 -99 -42t-43 -108t43 -107.5t99 -41.5z" />
			<glyph glyph-name="c" unicode="c" horiz-adv-x="565"  d="M415 178l120 -43q-29 -69 -93.5 -109.5t-144.5 -40.5q-112 0 -189.5 74t-77.5 190t77.5 190.5t189.5 74.5q77 0 140 -38.5t95 -105.5l-122 -47q-31 70 -113 70q-62 0 -100.5 -40t-38.5 -104t38.5 -103.5t100.5 -39.5q81 0 118 72z" />
			<glyph glyph-name="d" unicode="d" horiz-adv-x="642"  d="M440 720h132v-720h-132v39q-67 -54 -165 -54q-99 0 -172 75t-73 189t73.5 189.5t171.5 75.5q99 0 165 -55v261zM298 100q56 0 99 41.5t43 107.5t-43 108t-99 42q-61 0 -100.5 -41t-39.5 -109t39.5 -108.5t100.5 -40.5z" />
			<glyph glyph-name="e" unicode="e" horiz-adv-x="571"  d="M541 259v-45h-380q10 -53 45.5 -84.5t84.5 -31.5q78 0 119 50l105 -52q-71 -111 -224 -111q-111 0 -186 74t-75 190t74.5 190.5t183.5 74.5q102 0 175.5 -71.5t77.5 -183.5zM288 399q-41 0 -76.5 -24t-46.5 -68h241q-13 46 -44.5 69t-73.5 23z" />
			<glyph glyph-name="f" unicode="f" horiz-adv-x="369"  d="M228 544v-45h136v-108h-136v-391h-132v391h-91v108h91v45q0 87 54 138t143 51q48 0 89 -19l-30 -107q-27 9 -50 9q-33 0 -53.5 -19t-20.5 -53z" />
			<glyph glyph-name="g" unicode="g" horiz-adv-x="627"  d="M556 499l1 -451q0 -112 -76.5 -175t-201.5 -63q-136 0 -209 70l82 98q61 -49 125 -49q68 0 110 37.5t42 101.5v8q-57 -46 -157 -46q-96 0 -169 71t-73 172q0 100 73 170.5t169 70.5q98 0 157 -46v31h127zM295 143q54 0 94 36.5t40 93.5t-40 93.5t-94 36.5q-60 0 -99 -36 t-39 -94t39 -94t99 -36z" />
			<glyph glyph-name="h" unicode="h" horiz-adv-x="617"  d="M359 514q90 0 145 -58.5t55 -151.5v-304h-132v276q0 53 -27.5 85t-73.5 32q-124 0 -124 -172v-221h-132v720h132v-266q60 60 157 60z" />
			<glyph glyph-name="i" unicode="i" horiz-adv-x="286"  d="M143 727q34 0 57 -23.5t23 -55.5q0 -33 -23 -55t-57 -22q-35 0 -57.5 22t-22.5 55q0 32 23 55.5t57 23.5zM209 499v-499h-132v499h132z" />
			<glyph glyph-name="j" unicode="j" horiz-adv-x="297"  d="M154 727q34 0 57 -23.5t23 -55.5q0 -33 -23 -55t-57 -22q-35 0 -57.5 22t-22.5 55q0 32 23 55.5t57 23.5zM-2 -46q28 -10 45 -10q21 0 34 11t13 28v516h132v-534q0 -65 -40 -105t-106 -40q-51 0 -102 19z" />
			<glyph glyph-name="k" unicode="k" horiz-adv-x="597"  d="M310 264l287 -264h-189l-201 195h-5v-195h-132v720h132v-395h8l189 174h172z" />
			<glyph glyph-name="l" unicode="l" horiz-adv-x="272"  d="M202 720v-720h-132v720h132z" />
			<glyph glyph-name="m" unicode="m" horiz-adv-x="949"  d="M697 514q80 0 137 -56.5t57 -145.5v-312h-131v285q0 49 -28 78.5t-70 29.5q-54 0 -85 -38.5t-31 -114.5v-240h-132v285q0 49 -28 78.5t-70 29.5q-54 0 -84 -38t-30 -115v-240h-132v499h132v-41q56 56 149 56q108 0 164 -82q66 82 182 82z" />
			<glyph glyph-name="n" unicode="n" horiz-adv-x="616"  d="M359 514q90 0 145 -58.5t55 -151.5v-304h-132v276q0 53 -27.5 85t-73.5 32q-124 0 -124 -172v-221h-132v499h132v-45q60 60 157 60z" />
			<glyph glyph-name="o" unicode="o" horiz-adv-x="601"  d="M302 511q112 0 190.5 -73.5t78.5 -188.5t-78.5 -188.5t-190.5 -73.5q-114 0 -193 73.5t-79 188.5t79 188.5t193 73.5zM302 100q55 0 98 41.5t43 107.5t-43 107.5t-98 41.5q-57 0 -100.5 -41t-43.5 -108t43.5 -108t100.5 -41z" />
			<glyph glyph-name="p" unicode="p" horiz-adv-x="642"  d="M367 514q98 0 171.5 -75.5t73.5 -189.5t-73 -189t-172 -75q-98 0 -165 54v-209h-132v669h132v-40q66 55 165 55zM344 100q61 0 100.5 40.5t39.5 108.5t-39.5 109t-100.5 41q-56 0 -99 -42t-43 -108t43 -107.5t99 -41.5z" />
			<glyph glyph-name="q" unicode="q" horiz-adv-x="642"  d="M440 499h132v-669h-132v209q-67 -54 -165 -54q-99 0 -172 75t-73 189t73.5 189.5t171.5 75.5q99 0 165 -55v40zM298 100q56 0 99 41.5t43 107.5t-43 108t-99 42q-61 0 -100.5 -41t-39.5 -109t39.5 -108.5t100.5 -40.5z" />
			<glyph glyph-name="r" unicode="r" horiz-adv-x="429"  d="M381 506q23 0 35 -4l-7 -127h-29q-178 0 -178 -214v-161h-132v499h132v-91q68 98 179 98z" />
			<glyph glyph-name="s" unicode="s" horiz-adv-x="503"  d="M163 149q15 -58 101 -58q36 0 57 14t21 36q0 33 -55 45l-97 21q-68 15 -104.5 51.5t-36.5 90.5q0 73 55.5 119t148.5 46q76 0 130.5 -31.5t76.5 -84.5l-122 -36q-22 48 -89 48q-36 0 -52 -14.5t-16 -34.5q0 -32 45 -42l114 -26q64 -15 97.5 -52t33.5 -89 q0 -81 -59.5 -124t-159.5 -43q-78 0 -136.5 28t-79.5 84z" />
			<glyph glyph-name="t" unicode="t" horiz-adv-x="434"  d="M395 132l38 -110q-69 -37 -130 -37q-92 0 -144 49.5t-52 149.5v207h-107v108h107v151h132v-151h163v-108h-163v-197q0 -86 73 -86q38 0 83 24z" />
			<glyph glyph-name="u" unicode="u" horiz-adv-x="616"  d="M414 499h132v-499h-132v45q-60 -60 -157 -60q-90 0 -145 58.5t-55 151.5v304h132v-276q0 -53 27.5 -85t73.5 -32q124 0 124 172v221z" />
			<glyph glyph-name="v" unicode="v" horiz-adv-x="576"  d="M424 500h142l-208 -500h-140l-208 500h142l136 -339z" />
			<glyph glyph-name="w" unicode="w" horiz-adv-x="787"  d="M646 499h131l-166 -500h-119l-98 294l-99 -294h-119l-166 500h131l99 -307l102 307h103l102 -308z" />
			<glyph glyph-name="x" unicode="x" horiz-adv-x="591"  d="M561 500l-168 -257l168 -243h-157l-109 158l-108 -158h-157l168 243l-168 257h157l108 -168l109 168h157z" />
			<glyph glyph-name="y" unicode="y" horiz-adv-x="584"  d="M427 500h147l-330 -670h-147l120 244l-207 426h147l136 -272z" />
			<glyph glyph-name="z" unicode="z" horiz-adv-x="523"  d="M203 108h280v-108h-443v86l268 305h-261v108h424v-88z" />
			<glyph glyph-name="braceleft" unicode="{" horiz-adv-x="424"  d="M249 437q0 -81 -67 -108q67 -27 67 -108v-161q0 -14 8 -22.5t22 -8.5h105v-111h-122q-63 0 -101.5 35t-38.5 93v159q0 27 -17.5 40t-53.5 25l-31 10v98l31 10q36 12 53.5 25t17.5 40v159q0 58 38.5 93.5t101.5 35.5h122v-111h-105q-13 0 -21.5 -9t-8.5 -23v-161z" />
			<glyph glyph-name="bar" unicode="|" horiz-adv-x="267"  d="M197 741v-813h-127v813h127z" />
			<glyph glyph-name="braceright" unicode="}" horiz-adv-x="424"  d="M373 388l31 -10v-98l-31 -10q-36 -12 -53.5 -25t-17.5 -40v-159q0 -58 -38.5 -93t-101.5 -35h-122v111h105q14 0 22 8.5t8 22.5v161q0 81 67 108q-67 27 -67 108v161q0 14 -8.5 23t-21.5 9h-105v111h122q63 0 101.5 -35.5t38.5 -93.5v-159q0 -27 17.5 -40t53.5 -25z" />
			<glyph glyph-name="asciitilde" unicode="~" horiz-adv-x="500"  d="M50 229q0 82 39 117t87 35q41 0 78.5 -20.5t53.5 -20.5q17 0 26.5 12t8.5 30h109q0 -45 -13.5 -77t-35 -48t-43 -23t-42.5 -7q-42 0 -78.5 20.5t-50.5 20.5q-19 0 -29.5 -11t-9.5 -28h-100z" />
			<glyph glyph-name="exclamdown" unicode="&#xa1;" horiz-adv-x="288"  d="M144 359q-34 0 -56.5 23t-22.5 54q0 32 22.5 54t56.5 22t56.5 -22t22.5 -54q0 -31 -22.5 -54t-56.5 -23zM72 -162v31l5 420h135l5 -420v-31h-145z" />
			<glyph glyph-name="cent" unicode="&#xa2;" horiz-adv-x="577"  d="M535 135q-24 -59 -75 -97t-115 -49v-119h-111v122q-89 20 -146.5 89.5t-57.5 167.5t57.5 168t146.5 90v123h111v-120q62 -11 111 -47.5t76 -92.5l-122 -47q-21 48 -70 64v-275q49 14 75 66zM158 249q0 -48 21.5 -82.5t59.5 -49.5v265q-38 -16 -59.5 -51t-21.5 -82z" />
			<glyph glyph-name="sterling" unicode="&#xa3;" horiz-adv-x="637"  d="M261 238v-115h340v-123h-561v83l85 24v131h-85v123h85v87q0 106 65.5 171.5t173.5 65.5q105 0 167.5 -64.5t70.5 -172.5l-127 -25q-13 132 -111 132q-46 0 -74.5 -29.5t-28.5 -77.5v-87h170v-123h-170z" />
			<glyph glyph-name="yen" unicode="&#xa5;" horiz-adv-x="691"  d="M671 670l-207 -332h126v-100h-179v-50h179v-100h-179v-88h-136v88h-173v100h173v50h-173v100h121l-203 332h150l173 -294l172 294h156z" />
			<glyph glyph-name="section" unicode="&#xa7;" horiz-adv-x="537"  d="M507 244q0 -93 -83 -136q27 -37 27 -88q0 -77 -54.5 -119.5t-139.5 -42.5q-98 0 -153.5 49t-55.5 132l114 21q7 -101 89 -101q31 0 51.5 18t20.5 46q0 39 -53 63l-128 54q-64 26 -93 63t-29 95q0 88 83 135q-27 37 -27 88q0 79 54 121.5t140 42.5q92 0 146.5 -49 t57.5 -127l-116 -21q-2 47 -24 70.5t-58 23.5q-31 0 -51.5 -17.5t-20.5 -46.5q0 -39 53 -62l128 -54q64 -26 93 -63t29 -95zM196 238l131 -59l11 -5q26 14 37.5 28t11.5 34q0 40 -56 68l-131 59l-13 6q-47 -23 -47 -63q0 -41 56 -68z" />
			<glyph glyph-name="dieresis" unicode="&#xa8;" horiz-adv-x="600"  d="M192 718q34 0 57 -23.5t23 -54.5q0 -34 -22.5 -56t-57.5 -22q-34 0 -56.5 22t-22.5 56q0 32 22.5 55t56.5 23zM408 718q34 0 57 -23.5t23 -54.5q0 -34 -22.5 -56t-57.5 -22q-34 0 -56.5 22t-22.5 56q0 32 22.5 55t56.5 23z" />
			<glyph glyph-name="copyright" unicode="&#xa9;" horiz-adv-x="756"  d="M375 685q146 0 248 -100t102 -252q0 -150 -102 -249t-248 -99t-248.5 99t-102.5 249q0 152 102.5 252t248.5 100zM375 629q-120 0 -204.5 -84t-84.5 -211q0 -126 84.5 -209t204.5 -83t204 83t84 209t-84.5 210.5t-203.5 84.5zM379 522q76 0 125 -39.5t58 -99.5l-87 -18 q-8 34 -34 53.5t-62 19.5q-44 0 -71.5 -29.5t-27.5 -74.5t27.5 -74.5t71.5 -29.5q37 0 64 21t31 58l88 -14q-6 -66 -55.5 -107.5t-127.5 -41.5t-134.5 53t-56.5 135t56.5 135t134.5 53z" />
			<glyph glyph-name="ordfeminine" unicode="&#xaa;" horiz-adv-x="389"  d="M202 673q70 0 111.5 -33t41.5 -98v-202h-96v19q-33 -28 -94 -28q-55 0 -89 29.5t-34 77.5q0 45 37.5 72.5t98.5 27.5h81v10q0 21 -13.5 35t-36.5 14q-45 0 -59 -45l-87 20q12 49 49.5 75t89.5 26zM186 402q32 0 52.5 16.5t20.5 42.5v14h-71q-21 0 -35 -10t-14 -26 q0 -37 47 -37z" />
			<glyph glyph-name="guillemotleft" unicode="&#xab;" horiz-adv-x="472"  d="M137 84l-112 178l112 178h130l-112 -178l112 -178h-130zM317 84l-112 178l112 178h130l-112 -178l112 -178h-130z" />
			<glyph glyph-name="registered" unicode="&#xae;" horiz-adv-x="500"  d="M250 685q84 0 142 -57t58 -144q0 -86 -58 -143t-142 -57t-142 57t-58 143q0 87 58 144t142 57zM250 323q67 0 113.5 46.5t46.5 114.5q0 70 -46.5 116.5t-113.5 46.5q-66 0 -112.5 -46.5t-46.5 -116.5q0 -68 46.5 -114.5t112.5 -46.5zM337 521q0 -45 -47 -60l57 -63h-48 l-52 59h-30v-59h-40v184h85q34 0 54.5 -16.5t20.5 -44.5zM217 546v-53h45q16 0 25.5 7.5t9.5 19.5q0 26 -35 26h-45z" />
			<glyph glyph-name="macron" unicode="&#xaf;" horiz-adv-x="600"  d="M459 680v-108h-318v108h318z" />
			<glyph glyph-name="degree" unicode="&#xb0;" horiz-adv-x="417"  d="M209 685q63 0 107.5 -41t44.5 -107q0 -65 -44.5 -106t-107.5 -41q-64 0 -108.5 41t-44.5 106q0 66 44.5 107t108.5 41zM209 472q25 0 43.5 18t18.5 48q0 29 -18.5 47t-43.5 18t-44 -18t-19 -47q0 -30 19 -48t44 -18z" />
			<glyph glyph-name="plusminus" unicode="&#xb1;" horiz-adv-x="580"  d="M348 447h172v-115h-172v-146h-116v146h-172v115h172v166h116v-166zM60 0v115h460v-115h-460z" />
			<glyph glyph-name="acute" unicode="&#xb4;" horiz-adv-x="600"  d="M446 711l-109 -144h-112l66 144h155z" />
			<glyph glyph-name="paragraph" unicode="&#xb6;" horiz-adv-x="596"  d="M379 670v-670h-100v299h-50q-91 0 -150 51.5t-59 137.5q0 88 52.5 135t142.5 47h164zM526 670v-670h-100v670h100z" />
			<glyph glyph-name="periodcentered" unicode="&#xb7;" horiz-adv-x="238"  d="M119 335q34 0 56.5 -23t22.5 -54q0 -32 -22.5 -54t-56.5 -22t-56.5 22t-22.5 54q0 31 22.5 54t56.5 23z" />
			<glyph glyph-name="cedilla" unicode="&#xb8;" horiz-adv-x="600"  d="M199 -160l96 160h97l-53 -160h-140z" />
			<glyph glyph-name="ordmasculine" unicode="&#xba;" horiz-adv-x="425"  d="M211 673q76 0 128 -48t52 -123t-52 -123t-128 -48q-73 0 -125 48t-52 123t52 123t125 48zM211 419q35 0 59 24t24 59t-24 59t-59 24q-32 0 -55.5 -24t-23.5 -59t23.5 -59t55.5 -24z" />
			<glyph glyph-name="guillemotright" unicode="&#xbb;" horiz-adv-x="472"  d="M155 84h-130l112 178l-112 178h130l112 -178zM335 84h-130l112 178l-112 178h130l112 -178z" />
			<glyph glyph-name="onequarter" unicode="&#xbc;" horiz-adv-x="739"  d="M93 290v253l-72 -47v102l105 72h63v-380h-96zM570 670h87l-491 -670h-87zM710 148v-78h-50v-70h-89v70h-194v86l171 224h112v-232h50zM469 148h102v134z" />
			<glyph glyph-name="onehalf" unicode="&#xbd;" horiz-adv-x="809"  d="M93 290v253l-72 -47v102l105 72h63v-380h-96zM550 670h87l-491 -670h-87zM623 126l-51 -42h138v-84h-288v64l143 121q31 27 43 42.5t12 35.5t-14 33t-37 13q-57 0 -60 -71l-82 19q0 60 38.5 96.5t103.5 36.5t104 -33.5t39 -92.5q0 -39 -22 -70t-67 -68z" />
			<glyph glyph-name="threequarters" unicode="&#xbe;" horiz-adv-x="821"  d="M317 408q0 -53 -41 -88t-105 -35q-63 0 -104 34t-43 91l80 20q5 -65 68 -65q25 0 40 12.5t15 32.5t-14.5 31t-39.5 11h-40v68h33q25 0 41.5 11t16.5 29q0 19 -15 31t-39 12q-57 0 -59 -62l-84 20q5 55 43.5 87t98.5 32q62 0 101.5 -33t39.5 -84q0 -50 -47 -74 q54 -27 54 -81zM642 670h87l-491 -670h-87zM792 148v-78h-50v-70h-89v70h-194v86l171 224h112v-232h50zM551 148h102v134z" />
			<glyph glyph-name="questiondown" unicode="&#xbf;" horiz-adv-x="495"  d="M249 359q-34 0 -56.5 23t-22.5 54q0 32 22.5 54t56.5 22t56.5 -22t22.5 -54q0 -31 -22.5 -54t-56.5 -23zM347 3l103 -64q-31 -51 -90 -83.5t-133 -32.5q-94 0 -150.5 51.5t-56.5 137.5q0 143 167 186v85h121v-166h-4q-156 -14 -156 -104q0 -35 21.5 -54t58.5 -19 q69 0 119 63z" />
			<glyph glyph-name="Agrave" unicode="&#xc0;" horiz-adv-x="677"  d="M393 738h-112l-109 144h155zM404 670l273 -670h-147l-54 143h-275l-54 -143h-147l273 670h131zM248 266h181l-90 239z" />
			<glyph glyph-name="Aacute" unicode="&#xc1;" horiz-adv-x="677"  d="M508 882l-109 -144h-112l66 144h155zM404 670l273 -670h-147l-54 143h-275l-54 -143h-147l273 670h131zM248 266h181l-90 239z" />
			<glyph glyph-name="Acircumflex" unicode="&#xc2;" horiz-adv-x="677"  d="M340 791l-46 -62h-130l113 149h125l115 -149h-132zM404 670l273 -670h-147l-54 143h-275l-54 -143h-147l273 670h131zM248 266h181l-90 239z" />
			<glyph glyph-name="Atilde" unicode="&#xc3;" horiz-adv-x="677"  d="M289 792q-13 0 -20.5 -10.5t-7.5 -25.5h-87q0 71 32 101t75 30q36 0 69.5 -19.5t52.5 -19.5q13 0 20.5 11.5t7.5 27.5h87q0 -72 -32 -102.5t-75 -30.5q-37 0 -70 19t-52 19zM404 670l273 -670h-147l-54 143h-275l-54 -143h-147l273 670h131zM248 266h181l-90 239z" />
			<glyph glyph-name="Adieresis" unicode="&#xc4;" horiz-adv-x="677"  d="M231 733q-34 0 -56.5 22t-22.5 56q0 32 22.5 55t56.5 23t57 -23.5t23 -54.5q0 -34 -22.5 -56t-57.5 -22zM447 733q-34 0 -56.5 22t-22.5 56q0 32 22.5 55t56.5 23t57 -23.5t23 -54.5q0 -34 -22.5 -56t-57.5 -22zM404 670l273 -670h-147l-54 143h-275l-54 -143h-147 l273 670h131zM248 266h181l-90 239z" />
			<glyph glyph-name="Aring" unicode="&#xc5;" horiz-adv-x="677"  d="M339 715q-50 0 -84.5 33.5t-34.5 81.5t34.5 81.5t84.5 33.5t84.5 -33.5t34.5 -81.5t-34.5 -81.5t-84.5 -33.5zM339 870q-18 0 -30 -11.5t-12 -28.5t12 -28.5t30 -11.5t30 11.5t12 28.5t-12 28.5t-30 11.5zM404 670l273 -670h-147l-54 143h-275l-54 -143h-147l273 670h131 zM248 266h181l-90 239z" />
			<glyph glyph-name="AE" unicode="&#xc6;" horiz-adv-x="1041"  d="M623 123h373v-123h-509v123h-251l-79 -123h-157l450 670h544v-123h-371v-151h342v-121h-342v-152zM314 246h173v270z" />
			<glyph glyph-name="Ccedilla" unicode="&#xc7;" horiz-adv-x="733"  d="M691 161q-38 -76 -107 -121t-156 -53l-49 -147h-140l90 150q-126 22 -207.5 118t-81.5 227q0 147 102 248.5t250 101.5q90 0 165 -39t120 -109l-121 -63q-55 83 -164 83q-91 0 -153 -63.5t-62 -158.5t62.5 -159t152.5 -64q122 0 174 102z" />
			<glyph glyph-name="Egrave" unicode="&#xc8;" horiz-adv-x="634"  d="M394 738h-112l-109 144h155zM206 123h373v-123h-509v670h507v-123h-371v-151h342v-121h-342v-152z" />
			<glyph glyph-name="Eacute" unicode="&#xc9;" horiz-adv-x="634"  d="M509 882l-109 -144h-112l66 144h155zM206 123h373v-123h-509v670h507v-123h-371v-151h342v-121h-342v-152z" />
			<glyph glyph-name="Ecircumflex" unicode="&#xca;" horiz-adv-x="634"  d="M341 791l-46 -62h-130l113 149h125l115 -149h-132zM206 123h373v-123h-509v670h507v-123h-371v-151h342v-121h-342v-152z" />
			<glyph glyph-name="Edieresis" unicode="&#xcb;" horiz-adv-x="634"  d="M232 733q-34 0 -56.5 22t-22.5 56q0 32 22.5 55t56.5 23t57 -23.5t23 -54.5q0 -34 -22.5 -56t-57.5 -22zM448 733q-34 0 -56.5 22t-22.5 56q0 32 22.5 55t56.5 23t57 -23.5t23 -54.5q0 -34 -22.5 -56t-57.5 -22zM206 123h373v-123h-509v670h507v-123h-371v-151h342v-121 h-342v-152z" />
			<glyph glyph-name="Igrave" unicode="&#xcc;" horiz-adv-x="276"  d="M-29 882h155l66 -144h-112zM206 670v-670h-136v670h136z" />
			<glyph glyph-name="Iacute" unicode="&#xcd;" horiz-adv-x="276"  d="M307 882l-109 -144h-112l66 144h155zM206 670v-670h-136v670h136z" />
			<glyph glyph-name="Icircumflex" unicode="&#xce;" horiz-adv-x="276"  d="M139 791l-46 -62h-130l113 149h125l115 -149h-132zM70 0v670h136v-670h-136z" />
			<glyph glyph-name="Idieresis" unicode="&#xcf;" horiz-adv-x="276"  d="M30 889q34 0 57 -23.5t23 -54.5q0 -34 -22.5 -56t-57.5 -22q-34 0 -56.5 22t-22.5 56q0 32 22.5 55t56.5 23zM246 889q34 0 57 -23.5t23 -54.5q0 -34 -22.5 -56t-57.5 -22q-34 0 -56.5 22t-22.5 56q0 32 22.5 55t56.5 23zM206 670v-670h-136v670h136z" />
			<glyph glyph-name="Eth" unicode="&#xd0;" horiz-adv-x="735"  d="M337 670q166 0 267 -92.5t101 -242.5t-101 -242.5t-267 -92.5h-247v275h-60v123h60v272h247zM337 123q105 0 168 57.5t63 154.5t-63 154.5t-168 57.5h-111v-149h132v-123h-132v-152h111z" />
			<glyph glyph-name="Ntilde" unicode="&#xd1;" horiz-adv-x="761"  d="M336 792q-13 0 -20.5 -10.5t-7.5 -25.5h-87q0 71 32 101t75 30q36 0 69.5 -19.5t52.5 -19.5q13 0 20.5 11.5t7.5 27.5h87q0 -72 -32 -102.5t-75 -30.5q-37 0 -70 19t-52 19zM555 670h136v-670h-114l-371 430v-430h-136v670h114l371 -442v442z" />
			<glyph glyph-name="Ograve" unicode="&#xd2;" horiz-adv-x="786"  d="M447 738h-112l-109 144h155zM393 685q148 0 250.5 -102t102.5 -249q0 -146 -102.5 -247.5t-250.5 -101.5t-250.5 101.5t-102.5 247.5q0 147 102.5 249t250.5 102zM393 113q91 0 153.5 63t62.5 158t-62.5 159t-153.5 64t-153.5 -64t-62.5 -159t62.5 -158t153.5 -63z" />
			<glyph glyph-name="Oacute" unicode="&#xd3;" horiz-adv-x="786"  d="M562 882l-109 -144h-112l66 144h155zM393 685q148 0 250.5 -102t102.5 -249q0 -146 -102.5 -247.5t-250.5 -101.5t-250.5 101.5t-102.5 247.5q0 147 102.5 249t250.5 102zM393 113q91 0 153.5 63t62.5 158t-62.5 159t-153.5 64t-153.5 -64t-62.5 -159t62.5 -158 t153.5 -63z" />
			<glyph glyph-name="Ocircumflex" unicode="&#xd4;" horiz-adv-x="786"  d="M394 791l-46 -62h-130l113 149h125l115 -149h-132zM393 685q148 0 250.5 -102t102.5 -249q0 -146 -102.5 -247.5t-250.5 -101.5t-250.5 101.5t-102.5 247.5q0 147 102.5 249t250.5 102zM393 113q91 0 153.5 63t62.5 158t-62.5 159t-153.5 64t-153.5 -64t-62.5 -159 t62.5 -158t153.5 -63z" />
			<glyph glyph-name="Otilde" unicode="&#xd5;" horiz-adv-x="786"  d="M343 792q-13 0 -20.5 -10.5t-7.5 -25.5h-87q0 71 32 101t75 30q36 0 69.5 -19.5t52.5 -19.5q13 0 20.5 11.5t7.5 27.5h87q0 -72 -32 -102.5t-75 -30.5q-37 0 -70 19t-52 19zM393 685q148 0 250.5 -102t102.5 -249q0 -146 -102.5 -247.5t-250.5 -101.5t-250.5 101.5 t-102.5 247.5q0 147 102.5 249t250.5 102zM393 113q91 0 153.5 63t62.5 158t-62.5 159t-153.5 64t-153.5 -64t-62.5 -159t62.5 -158t153.5 -63z" />
			<glyph glyph-name="Odieresis" unicode="&#xd6;" horiz-adv-x="786"  d="M285 733q-34 0 -56.5 22t-22.5 56q0 32 22.5 55t56.5 23t57 -23.5t23 -54.5q0 -34 -22.5 -56t-57.5 -22zM501 733q-34 0 -56.5 22t-22.5 56q0 32 22.5 55t56.5 23t57 -23.5t23 -54.5q0 -34 -22.5 -56t-57.5 -22zM393 685q148 0 250.5 -102t102.5 -249 q0 -146 -102.5 -247.5t-250.5 -101.5t-250.5 101.5t-102.5 247.5q0 147 102.5 249t250.5 102zM393 113q91 0 153.5 63t62.5 158t-62.5 159t-153.5 64t-153.5 -64t-62.5 -159t62.5 -158t153.5 -63z" />
			<glyph glyph-name="multiply" unicode="&#xd7;" horiz-adv-x="528"  d="M482 439l-134 -134l134 -134l-83 -84l-135 135l-135 -135l-83 84l134 134l-134 134l83 84l135 -135l135 135z" />
			<glyph glyph-name="Oslash" unicode="&#xd8;" horiz-adv-x="786"  d="M683 537q63 -91 63 -203q0 -146 -102.5 -247.5t-250.5 -101.5q-113 0 -201 61l-68 -68l-78 78l65 65q-71 93 -71 213q0 147 102.5 249t250.5 102q118 0 213 -69l56 56l78 -78zM177 334q0 -63 30 -117l305 305q-54 35 -119 35q-91 0 -153.5 -64t-62.5 -159zM393 113 q91 0 153.5 63t62.5 158q0 55 -24 105l-299 -299q51 -27 107 -27z" />
			<glyph glyph-name="Ugrave" unicode="&#xd9;" horiz-adv-x="711"  d="M409 738h-112l-109 144h155zM511 670h136v-370q0 -141 -79 -228t-209 -87q-133 0 -214 87t-81 228v370h136v-370q0 -84 43.5 -134.5t115.5 -50.5q68 0 110 50.5t42 134.5v370z" />
			<glyph glyph-name="Uacute" unicode="&#xda;" horiz-adv-x="711"  d="M524 882l-109 -144h-112l66 144h155zM511 670h136v-370q0 -141 -79 -228t-209 -87q-133 0 -214 87t-81 228v370h136v-370q0 -84 43.5 -134.5t115.5 -50.5q68 0 110 50.5t42 134.5v370z" />
			<glyph glyph-name="Ucircumflex" unicode="&#xdb;" horiz-adv-x="711"  d="M356 791l-46 -62h-130l113 149h125l115 -149h-132zM511 670h136v-370q0 -141 -79 -228t-209 -87q-133 0 -214 87t-81 228v370h136v-370q0 -84 43.5 -134.5t115.5 -50.5q68 0 110 50.5t42 134.5v370z" />
			<glyph glyph-name="Udieresis" unicode="&#xdc;" horiz-adv-x="711"  d="M247 733q-34 0 -56.5 22t-22.5 56q0 32 22.5 55t56.5 23t57 -23.5t23 -54.5q0 -34 -22.5 -56t-57.5 -22zM463 733q-34 0 -56.5 22t-22.5 56q0 32 22.5 55t56.5 23t57 -23.5t23 -54.5q0 -34 -22.5 -56t-57.5 -22zM511 670h136v-370q0 -141 -79 -228t-209 -87 q-133 0 -214 87t-81 228v370h136v-370q0 -84 43.5 -134.5t115.5 -50.5q68 0 110 50.5t42 134.5v370z" />
			<glyph glyph-name="Yacute" unicode="&#xdd;" horiz-adv-x="691"  d="M514 882l-109 -144h-112l66 144h155zM681 670l-270 -456v-214h-136v212l-265 458h150l183 -316l182 316h156z" />
			<glyph glyph-name="Thorn" unicode="&#xde;" horiz-adv-x="650"  d="M370 561q108 0 174 -62t66 -164q0 -101 -66 -163.5t-174 -62.5h-164v-109h-136v670h136v-109h164zM363 232q51 0 81.5 28.5t30.5 74.5q0 47 -30.5 75t-81.5 28h-157v-206h157z" />
			<glyph glyph-name="germandbls" unicode="&#xdf;" horiz-adv-x="659"  d="M503 386q121 -40 121 -181q0 -92 -61 -151.5t-159 -59.5q-66 0 -137 13l15 109q69 -12 111 -12q52 0 86 30t34 71q0 55 -42.5 84.5t-120.5 29.5h-39v108h19q55 0 88 24.5t33 64.5q0 48 -31 77t-82 29q-61 0 -98.5 -38.5t-37.5 -104.5v-479h-132v469q0 120 74 194t194 74 q106 0 172 -59.5t66 -147.5q0 -105 -73 -144z" />
			<glyph glyph-name="agrave" unicode="&#xe0;" horiz-adv-x="642"  d="M365 567h-112l-109 144h155zM440 499h132v-499h-132v39q-67 -54 -165 -54q-99 0 -172 75t-73 189t73.5 189.5t171.5 75.5q99 0 165 -55v40zM298 100q56 0 99 41.5t43 107.5t-43 108t-99 42q-61 0 -100.5 -41t-39.5 -109t39.5 -108.5t100.5 -40.5z" />
			<glyph glyph-name="aacute" unicode="&#xe1;" horiz-adv-x="642"  d="M480 711l-109 -144h-112l66 144h155zM440 499h132v-499h-132v39q-67 -54 -165 -54q-99 0 -172 75t-73 189t73.5 189.5t171.5 75.5q99 0 165 -55v40zM298 100q56 0 99 41.5t43 107.5t-43 108t-99 42q-61 0 -100.5 -41t-39.5 -109t39.5 -108.5t100.5 -40.5z" />
			<glyph glyph-name="acircumflex" unicode="&#xe2;" horiz-adv-x="642"  d="M312 620l-46 -62h-130l113 149h125l115 -149h-132zM440 499h132v-499h-132v39q-67 -54 -165 -54q-99 0 -172 75t-73 189t73.5 189.5t171.5 75.5q99 0 165 -55v40zM298 100q56 0 99 41.5t43 107.5t-43 108t-99 42q-61 0 -100.5 -41t-39.5 -109t39.5 -108.5t100.5 -40.5z " />
			<glyph glyph-name="atilde" unicode="&#xe3;" horiz-adv-x="642"  d="M261 621q-13 0 -20.5 -10.5t-7.5 -25.5h-87q0 71 32 101t75 30q36 0 69.5 -19.5t52.5 -19.5q13 0 20.5 11.5t7.5 27.5h87q0 -72 -32 -102.5t-75 -30.5q-37 0 -70 19t-52 19zM440 499h132v-499h-132v39q-67 -54 -165 -54q-99 0 -172 75t-73 189t73.5 189.5t171.5 75.5 q99 0 165 -55v40zM298 100q56 0 99 41.5t43 107.5t-43 108t-99 42q-61 0 -100.5 -41t-39.5 -109t39.5 -108.5t100.5 -40.5z" />
			<glyph glyph-name="adieresis" unicode="&#xe4;" horiz-adv-x="642"  d="M203 562q-34 0 -56.5 22t-22.5 56q0 32 22.5 55t56.5 23t57 -23.5t23 -54.5q0 -34 -22.5 -56t-57.5 -22zM419 562q-34 0 -56.5 22t-22.5 56q0 32 22.5 55t56.5 23t57 -23.5t23 -54.5q0 -34 -22.5 -56t-57.5 -22zM440 499h132v-499h-132v39q-67 -54 -165 -54 q-99 0 -172 75t-73 189t73.5 189.5t171.5 75.5q99 0 165 -55v40zM298 100q56 0 99 41.5t43 107.5t-43 108t-99 42q-61 0 -100.5 -41t-39.5 -109t39.5 -108.5t100.5 -40.5z" />
			<glyph glyph-name="aring" unicode="&#xe5;" horiz-adv-x="642"  d="M311 544q-50 0 -84.5 33.5t-34.5 81.5t34.5 81.5t84.5 33.5t84.5 -33.5t34.5 -81.5t-34.5 -81.5t-84.5 -33.5zM311 699q-18 0 -30 -11.5t-12 -28.5t12 -28.5t30 -11.5t30 11.5t12 28.5t-12 28.5t-30 11.5zM440 499h132v-499h-132v39q-67 -54 -165 -54q-99 0 -172 75 t-73 189t73.5 189.5t171.5 75.5q99 0 165 -55v40zM298 100q56 0 99 41.5t43 107.5t-43 108t-99 42q-61 0 -100.5 -41t-39.5 -109t39.5 -108.5t100.5 -40.5z" />
			<glyph glyph-name="ae" unicode="&#xe6;" horiz-adv-x="901"  d="M871 249v-45h-378q13 -51 46 -78.5t82 -27.5q78 0 119 50l105 -52q-71 -111 -225 -111q-118 0 -194 82q-78 -82 -205 -82q-92 0 -141.5 45.5t-49.5 114.5q0 71 53.5 111.5t148.5 40.5h140v19q0 40 -26.5 64t-69.5 24q-39 0 -65 -20t-31 -56l-121 25q9 71 68.5 116 t150.5 45q110 0 170 -62q73 62 168 62q106 0 180.5 -74t74.5 -191zM492 297h246q-11 53 -43 79.5t-74 26.5q-45 0 -82.5 -28t-46.5 -78zM372 192v12h-140q-37 0 -56.5 -14.5t-19.5 -39.5q0 -27 22.5 -43.5t58.5 -16.5q52 0 93.5 31t41.5 71z" />
			<glyph glyph-name="ccedilla" unicode="&#xe7;" horiz-adv-x="565"  d="M535 135q-25 -59 -75.5 -97t-115.5 -49l-49 -149h-140l90 150q-94 17 -154.5 87.5t-60.5 171.5q0 116 77.5 190.5t189.5 74.5q77 0 140 -38.5t95 -105.5l-122 -47q-31 70 -113 70q-62 0 -100.5 -40t-38.5 -104t38.5 -103.5t100.5 -39.5q81 0 118 72z" />
			<glyph glyph-name="egrave" unicode="&#xe8;" horiz-adv-x="571"  d="M344 567h-112l-109 144h155zM541 259v-45h-380q10 -53 45.5 -84.5t84.5 -31.5q78 0 119 50l105 -52q-71 -111 -224 -111q-111 0 -186 74t-75 190t74.5 190.5t183.5 74.5q102 0 175.5 -71.5t77.5 -183.5zM288 399q-41 0 -76.5 -24t-46.5 -68h241q-13 46 -44.5 69t-73.5 23 z" />
			<glyph glyph-name="eacute" unicode="&#xe9;" horiz-adv-x="571"  d="M459 711l-109 -144h-112l66 144h155zM541 259v-45h-380q10 -53 45.5 -84.5t84.5 -31.5q78 0 119 50l105 -52q-71 -111 -224 -111q-111 0 -186 74t-75 190t74.5 190.5t183.5 74.5q102 0 175.5 -71.5t77.5 -183.5zM288 399q-41 0 -76.5 -24t-46.5 -68h241q-13 46 -44.5 69 t-73.5 23z" />
			<glyph glyph-name="ecircumflex" unicode="&#xea;" horiz-adv-x="571"  d="M291 620l-46 -62h-130l113 149h125l115 -149h-132zM541 259v-45h-380q10 -53 45.5 -84.5t84.5 -31.5q78 0 119 50l105 -52q-71 -111 -224 -111q-111 0 -186 74t-75 190t74.5 190.5t183.5 74.5q102 0 175.5 -71.5t77.5 -183.5zM288 399q-41 0 -76.5 -24t-46.5 -68h241 q-13 46 -44.5 69t-73.5 23z" />
			<glyph glyph-name="edieresis" unicode="&#xeb;" horiz-adv-x="571"  d="M182 562q-34 0 -56.5 22t-22.5 56q0 32 22.5 55t56.5 23t57 -23.5t23 -54.5q0 -34 -22.5 -56t-57.5 -22zM398 562q-34 0 -56.5 22t-22.5 56q0 32 22.5 55t56.5 23t57 -23.5t23 -54.5q0 -34 -22.5 -56t-57.5 -22zM541 259v-45h-380q10 -53 45.5 -84.5t84.5 -31.5 q78 0 119 50l105 -52q-71 -111 -224 -111q-111 0 -186 74t-75 190t74.5 190.5t183.5 74.5q102 0 175.5 -71.5t77.5 -183.5zM288 399q-41 0 -76.5 -24t-46.5 -68h241q-13 46 -44.5 69t-73.5 23z" />
			<glyph glyph-name="igrave" unicode="&#xec;" horiz-adv-x="296"  d="M-19 711h155l66 -144h-112zM214 499v-499h-132v499h132z" />
			<glyph glyph-name="iacute" unicode="&#xed;" horiz-adv-x="296"  d="M317 711l-109 -144h-112l66 144h155zM214 499v-499h-132v499h132z" />
			<glyph glyph-name="icircumflex" unicode="&#xee;" horiz-adv-x="296"  d="M149 620l-46 -62h-130l113 149h125l115 -149h-132zM82 0v499h132v-499h-132z" />
			<glyph glyph-name="idieresis" unicode="&#xef;" horiz-adv-x="296"  d="M40 718q34 0 57 -23.5t23 -54.5q0 -34 -22.5 -56t-57.5 -22q-34 0 -56.5 22t-22.5 56q0 32 22.5 55t56.5 23zM256 718q34 0 57 -23.5t23 -54.5q0 -34 -22.5 -56t-57.5 -22q-34 0 -56.5 22t-22.5 56q0 32 22.5 55t56.5 23zM214 499v-499h-132v499h132z" />
			<glyph glyph-name="eth" unicode="&#xf0;" horiz-adv-x="604"  d="M405 614q73 -76 121 -170t48 -192q0 -65 -23.5 -117.5t-62 -84t-86 -48.5t-97.5 -17q-114 0 -194.5 74t-80.5 190q0 117 70.5 191t179.5 74q34 0 67 -13q-26 36 -60 67l-137 -55l-37 91l79 32q-55 31 -127 57v27h207q22 -12 50 -32l108 43l37 -92zM304 100q64 0 101.5 46 t37.5 106q0 63 -41.5 104.5t-98.5 41.5q-64 0 -104.5 -41.5t-40.5 -107.5q0 -64 43.5 -106.5t102.5 -42.5z" />
			<glyph glyph-name="ntilde" unicode="&#xf1;" horiz-adv-x="616"  d="M263 621q-13 0 -20.5 -10.5t-7.5 -25.5h-87q0 71 32 101t75 30q36 0 69.5 -19.5t52.5 -19.5q13 0 20.5 11.5t7.5 27.5h87q0 -72 -32 -102.5t-75 -30.5q-37 0 -70 19t-52 19zM359 514q90 0 145 -58.5t55 -151.5v-304h-132v276q0 53 -27.5 85t-73.5 32q-124 0 -124 -172 v-221h-132v499h132v-45q60 60 157 60z" />
			<glyph glyph-name="ograve" unicode="&#xf2;" horiz-adv-x="601"  d="M356 567h-112l-109 144h155zM302 511q112 0 190.5 -73.5t78.5 -188.5t-78.5 -188.5t-190.5 -73.5q-114 0 -193 73.5t-79 188.5t79 188.5t193 73.5zM302 100q55 0 98 41.5t43 107.5t-43 107.5t-98 41.5q-57 0 -100.5 -41t-43.5 -108t43.5 -108t100.5 -41z" />
			<glyph glyph-name="oacute" unicode="&#xf3;" horiz-adv-x="601"  d="M471 711l-109 -144h-112l66 144h155zM302 511q112 0 190.5 -73.5t78.5 -188.5t-78.5 -188.5t-190.5 -73.5q-114 0 -193 73.5t-79 188.5t79 188.5t193 73.5zM302 100q55 0 98 41.5t43 107.5t-43 107.5t-98 41.5q-57 0 -100.5 -41t-43.5 -108t43.5 -108t100.5 -41z" />
			<glyph glyph-name="ocircumflex" unicode="&#xf4;" horiz-adv-x="601"  d="M303 620l-46 -62h-130l113 149h125l115 -149h-132zM302 511q112 0 190.5 -73.5t78.5 -188.5t-78.5 -188.5t-190.5 -73.5q-114 0 -193 73.5t-79 188.5t79 188.5t193 73.5zM302 100q55 0 98 41.5t43 107.5t-43 107.5t-98 41.5q-57 0 -100.5 -41t-43.5 -108t43.5 -108 t100.5 -41z" />
			<glyph glyph-name="otilde" unicode="&#xf5;" horiz-adv-x="601"  d="M252 621q-13 0 -20.5 -10.5t-7.5 -25.5h-87q0 71 32 101t75 30q36 0 69.5 -19.5t52.5 -19.5q13 0 20.5 11.5t7.5 27.5h87q0 -72 -32 -102.5t-75 -30.5q-37 0 -70 19t-52 19zM302 511q112 0 190.5 -73.5t78.5 -188.5t-78.5 -188.5t-190.5 -73.5q-114 0 -193 73.5 t-79 188.5t79 188.5t193 73.5zM302 100q55 0 98 41.5t43 107.5t-43 107.5t-98 41.5q-57 0 -100.5 -41t-43.5 -108t43.5 -108t100.5 -41z" />
			<glyph glyph-name="odieresis" unicode="&#xf6;" horiz-adv-x="601"  d="M194 562q-34 0 -56.5 22t-22.5 56q0 32 22.5 55t56.5 23t57 -23.5t23 -54.5q0 -34 -22.5 -56t-57.5 -22zM410 562q-34 0 -56.5 22t-22.5 56q0 32 22.5 55t56.5 23t57 -23.5t23 -54.5q0 -34 -22.5 -56t-57.5 -22zM302 511q112 0 190.5 -73.5t78.5 -188.5t-78.5 -188.5 t-190.5 -73.5q-114 0 -193 73.5t-79 188.5t79 188.5t193 73.5zM302 100q55 0 98 41.5t43 107.5t-43 107.5t-98 41.5q-57 0 -100.5 -41t-43.5 -108t43.5 -108t100.5 -41z" />
			<glyph glyph-name="divide" unicode="&#xf7;" horiz-adv-x="580"  d="M285 557q34 0 56.5 -23t22.5 -54q0 -32 -22.5 -54t-56.5 -22t-56.5 22t-22.5 54q0 31 22.5 54t56.5 23zM520 363v-116h-460v116h460zM285 207q34 0 56.5 -23t22.5 -54q0 -32 -22.5 -54t-56.5 -22t-56.5 22t-22.5 54q0 31 22.5 54t56.5 23z" />
			<glyph glyph-name="oslash" unicode="&#xf8;" horiz-adv-x="601"  d="M521 406q50 -68 50 -157q0 -115 -78.5 -188.5t-190.5 -73.5q-87 0 -156 44l-48 -48l-64 64l46 46q-50 68 -50 156q0 115 79 188.5t193 73.5q84 0 152 -44l50 50l64 -64zM158 249q0 -34 13 -65l197 197q-32 17 -66 17q-57 0 -100.5 -41t-43.5 -108zM302 100q55 0 98 41.5 t43 107.5q0 35 -14 65l-196 -196q31 -18 69 -18z" />
			<glyph glyph-name="ugrave" unicode="&#xf9;" horiz-adv-x="616"  d="M359 567h-112l-109 144h155zM414 499h132v-499h-132v45q-60 -60 -157 -60q-90 0 -145 58.5t-55 151.5v304h132v-276q0 -53 27.5 -85t73.5 -32q124 0 124 172v221z" />
			<glyph glyph-name="uacute" unicode="&#xfa;" horiz-adv-x="616"  d="M474 711l-109 -144h-112l66 144h155zM414 499h132v-499h-132v45q-60 -60 -157 -60q-90 0 -145 58.5t-55 151.5v304h132v-276q0 -53 27.5 -85t73.5 -32q124 0 124 172v221z" />
			<glyph glyph-name="ucircumflex" unicode="&#xfb;" horiz-adv-x="616"  d="M306 620l-46 -62h-130l113 149h125l115 -149h-132zM414 499h132v-499h-132v45q-60 -60 -157 -60q-90 0 -145 58.5t-55 151.5v304h132v-276q0 -53 27.5 -85t73.5 -32q124 0 124 172v221z" />
			<glyph glyph-name="udieresis" unicode="&#xfc;" horiz-adv-x="616"  d="M197 562q-34 0 -56.5 22t-22.5 56q0 32 22.5 55t56.5 23t57 -23.5t23 -54.5q0 -34 -22.5 -56t-57.5 -22zM413 562q-34 0 -56.5 22t-22.5 56q0 32 22.5 55t56.5 23t57 -23.5t23 -54.5q0 -34 -22.5 -56t-57.5 -22zM414 499h132v-499h-132v45q-60 -60 -157 -60 q-90 0 -145 58.5t-55 151.5v304h132v-276q0 -53 27.5 -85t73.5 -32q124 0 124 172v221z" />
			<glyph glyph-name="yacute" unicode="&#xfd;" horiz-adv-x="584"  d="M460 713l-109 -144h-112l66 144h155zM427 500h147l-330 -670h-147l120 244l-207 426h147l136 -272z" />
			<glyph glyph-name="thorn" unicode="&#xfe;" horiz-adv-x="642"  d="M367 514q98 0 171.5 -75.5t73.5 -189.5t-73 -189t-172 -75q-98 0 -165 54v-209h-132v890h132v-261q66 55 165 55zM344 100q61 0 100.5 40.5t39.5 108.5t-39.5 109t-100.5 41q-56 0 -99 -42t-43 -108t43 -107.5t99 -41.5z" />
			<glyph glyph-name="ydieresis" unicode="&#xff;" horiz-adv-x="584"  d="M183 564q-34 0 -56.5 22t-22.5 56q0 32 22.5 55t56.5 23t57 -23.5t23 -54.5q0 -34 -22.5 -56t-57.5 -22zM399 564q-34 0 -56.5 22t-22.5 56q0 32 22.5 55t56.5 23t57 -23.5t23 -54.5q0 -34 -22.5 -56t-57.5 -22zM427 500h147l-330 -670h-147l120 244l-207 426h147 l136 -272z" />
			<glyph glyph-name="Amacron" unicode="&#x100;" horiz-adv-x="677"  d="M498 851v-108h-318v108h318zM404 670l273 -670h-147l-54 143h-275l-54 -143h-147l273 670h131zM248 266h181l-90 239z" />
			<glyph glyph-name="amacron" unicode="&#x101;" horiz-adv-x="642"  d="M470 680v-108h-318v108h318zM440 499h132v-499h-132v39q-67 -54 -165 -54q-99 0 -172 75t-73 189t73.5 189.5t171.5 75.5q99 0 165 -55v40zM298 100q56 0 99 41.5t43 107.5t-43 108t-99 42q-61 0 -100.5 -41t-39.5 -109t39.5 -108.5t100.5 -40.5z" />
			<glyph glyph-name="Abreve" unicode="&#x102;" horiz-adv-x="677"  d="M339 719q-77 0 -122 40.5t-45 109.5h109q0 -26 16.5 -42.5t41.5 -16.5t41.5 16.5t16.5 42.5h109q0 -69 -45 -109.5t-122 -40.5zM404 670l273 -670h-147l-54 143h-275l-54 -143h-147l273 670h131zM248 266h181l-90 239z" />
			<glyph glyph-name="abreve" unicode="&#x103;" horiz-adv-x="642"  d="M311 548q-77 0 -122 40.5t-45 109.5h109q0 -26 16.5 -42.5t41.5 -16.5t41.5 16.5t16.5 42.5h109q0 -69 -45 -109.5t-122 -40.5zM440 499h132v-499h-132v39q-67 -54 -165 -54q-99 0 -172 75t-73 189t73.5 189.5t171.5 75.5q99 0 165 -55v40zM298 100q56 0 99 41.5 t43 107.5t-43 108t-99 42q-61 0 -100.5 -41t-39.5 -109t39.5 -108.5t100.5 -40.5z" />
			<glyph glyph-name="Aogonek" unicode="&#x104;" horiz-adv-x="677"  d="M689 -109l6 -81q-43 -20 -86 -20q-40 0 -66.5 23t-26.5 67q0 61 71 120h-57l-54 143h-275l-54 -143h-147l273 670h131l273 -670l-17.5 -20l-15 -17t-11.5 -13.5t-9.5 -13t-5.5 -10.5t-4 -10.5t-1 -10.5q0 -25 28 -25q13 0 48 11zM248 266h181l-90 239z" />
			<glyph glyph-name="aogonek" unicode="&#x105;" horiz-adv-x="642"  d="M584 -109l6 -81q-43 -20 -86 -20q-40 0 -66.5 23t-26.5 67q0 61 71 120h-42v39q-67 -54 -165 -54q-99 0 -172 75t-73 189t73.5 189.5t171.5 75.5q99 0 165 -55v40h132v-499l-17.5 -20l-15 -17t-11.5 -13.5t-9.5 -13t-5.5 -10.5t-4 -10.5t-1 -10.5q0 -25 28 -25 q13 0 48 11zM298 100q56 0 99 41.5t43 107.5t-43 108t-99 42q-61 0 -100.5 -41t-39.5 -109t39.5 -108.5t100.5 -40.5z" />
			<glyph glyph-name="Cacute" unicode="&#x106;" horiz-adv-x="733"  d="M560 882l-109 -144h-112l66 144h155zM566 214l125 -53q-41 -84 -120.5 -130t-178.5 -46q-148 0 -250 101t-102 249q0 147 102 248.5t250 101.5q90 0 165 -39t120 -109l-121 -63q-55 83 -164 83q-91 0 -153 -63.5t-62 -158.5t62.5 -159t152.5 -64q122 0 174 102z" />
			<glyph glyph-name="cacute" unicode="&#x107;" horiz-adv-x="565"  d="M466 711l-109 -144h-112l66 144h155zM415 178l120 -43q-29 -69 -93.5 -109.5t-144.5 -40.5q-112 0 -189.5 74t-77.5 190t77.5 190.5t189.5 74.5q77 0 140 -38.5t95 -105.5l-122 -47q-31 70 -113 70q-62 0 -100.5 -40t-38.5 -104t38.5 -103.5t100.5 -39.5q81 0 118 72z " />
			<glyph glyph-name="Cdotaccent" unicode="&#x10a;" horiz-adv-x="733"  d="M390 743q-34 0 -55.5 21.5t-21.5 54.5q0 31 22 53t55 22t55.5 -22t22.5 -53q0 -33 -22 -54.5t-56 -21.5zM566 214l125 -53q-41 -84 -120.5 -130t-178.5 -46q-148 0 -250 101t-102 249q0 147 102 248.5t250 101.5q90 0 165 -39t120 -109l-121 -63q-55 83 -164 83 q-91 0 -153 -63.5t-62 -158.5t62.5 -159t152.5 -64q122 0 174 102z" />
			<glyph glyph-name="cdotaccent" unicode="&#x10b;" horiz-adv-x="565"  d="M296 572q-34 0 -55.5 21.5t-21.5 54.5q0 31 22 53t55 22t55.5 -22t22.5 -53q0 -33 -22 -54.5t-56 -21.5zM415 178l120 -43q-29 -69 -93.5 -109.5t-144.5 -40.5q-112 0 -189.5 74t-77.5 190t77.5 190.5t189.5 74.5q77 0 140 -38.5t95 -105.5l-122 -47q-31 70 -113 70 q-62 0 -100.5 -40t-38.5 -104t38.5 -103.5t100.5 -39.5q81 0 118 72z" />
			<glyph glyph-name="Ccaron" unicode="&#x10c;" horiz-adv-x="733"  d="M329 729l-113 149h130l46 -62l45 62h132l-115 -149h-125zM566 214l125 -53q-41 -84 -120.5 -130t-178.5 -46q-148 0 -250 101t-102 249q0 147 102 248.5t250 101.5q90 0 165 -39t120 -109l-121 -63q-55 83 -164 83q-91 0 -153 -63.5t-62 -158.5t62.5 -159t152.5 -64 q122 0 174 102z" />
			<glyph glyph-name="ccaron" unicode="&#x10d;" horiz-adv-x="565"  d="M235 558l-113 149h130l46 -62l45 62h132l-115 -149h-125zM415 178l120 -43q-29 -69 -93.5 -109.5t-144.5 -40.5q-112 0 -189.5 74t-77.5 190t77.5 190.5t189.5 74.5q77 0 140 -38.5t95 -105.5l-122 -47q-31 70 -113 70q-62 0 -100.5 -40t-38.5 -104t38.5 -103.5 t100.5 -39.5q81 0 118 72z" />
			<glyph glyph-name="Dcaron" unicode="&#x10e;" horiz-adv-x="725"  d="M291 729l-113 149h130l46 -62l45 62h132l-115 -149h-125zM317 670q166 0 267 -92.5t101 -242.5t-101 -242.5t-267 -92.5h-247v670h247zM317 123q105 0 168 57.5t63 154.5t-63 154.5t-168 57.5h-111v-424h111z" />
			<glyph glyph-name="dcaron" unicode="&#x10f;" horiz-adv-x="642"  d="M440 459v261h132v-720h-132v39q-67 -54 -165 -54q-99 0 -172 75t-73 189t73.5 189.5t171.5 75.5q99 0 165 -55zM629 720h133l-29 -199h-104v199zM298 100q56 0 99 41.5t43 107.5t-43 108t-99 42q-61 0 -100.5 -41t-39.5 -109t39.5 -108.5t100.5 -40.5z" />
			<glyph glyph-name="Dcroat" unicode="&#x110;" horiz-adv-x="735"  d="M337 670q166 0 267 -92.5t101 -242.5t-101 -242.5t-267 -92.5h-247v275h-60v123h60v272h247zM337 123q105 0 168 57.5t63 154.5t-63 154.5t-168 57.5h-111v-149h132v-123h-132v-152h111z" />
			<glyph glyph-name="dcroat" unicode="&#x111;" horiz-adv-x="666"  d="M632 658v-106h-60v-552h-132v39q-67 -54 -165 -54q-99 0 -172 75t-73 189t73.5 189.5t171.5 75.5q99 0 165 -55v93h-146v106h146v62h132v-62h60zM298 100q56 0 99 41.5t43 107.5t-43 108t-99 42q-61 0 -100.5 -41t-39.5 -109t39.5 -108.5t100.5 -40.5z" />
			<glyph glyph-name="Emacron" unicode="&#x112;" horiz-adv-x="634"  d="M499 851v-108h-318v108h318zM206 123h373v-123h-509v670h507v-123h-371v-151h342v-121h-342v-152z" />
			<glyph glyph-name="emacron" unicode="&#x113;" horiz-adv-x="571"  d="M449 680v-108h-318v108h318zM541 259v-45h-380q10 -53 45.5 -84.5t84.5 -31.5q78 0 119 50l105 -52q-71 -111 -224 -111q-111 0 -186 74t-75 190t74.5 190.5t183.5 74.5q102 0 175.5 -71.5t77.5 -183.5zM288 399q-41 0 -76.5 -24t-46.5 -68h241q-13 46 -44.5 69t-73.5 23 z" />
			<glyph glyph-name="Edotaccent" unicode="&#x116;" horiz-adv-x="634"  d="M339 743q-34 0 -55.5 21.5t-21.5 54.5q0 31 22 53t55 22t55.5 -22t22.5 -53q0 -33 -22 -54.5t-56 -21.5zM206 123h373v-123h-509v670h507v-123h-371v-151h342v-121h-342v-152z" />
			<glyph glyph-name="edotaccent" unicode="&#x117;" horiz-adv-x="571"  d="M289 572q-34 0 -55.5 21.5t-21.5 54.5q0 31 22 53t55 22t55.5 -22t22.5 -53q0 -33 -22 -54.5t-56 -21.5zM541 259v-45h-380q10 -53 45.5 -84.5t84.5 -31.5q78 0 119 50l105 -52q-71 -111 -224 -111q-111 0 -186 74t-75 190t74.5 190.5t183.5 74.5q102 0 175.5 -71.5 t77.5 -183.5zM288 399q-41 0 -76.5 -24t-46.5 -68h241q-13 46 -44.5 69t-73.5 23z" />
			<glyph glyph-name="Eogonek" unicode="&#x118;" horiz-adv-x="634"  d="M579 0h-21l-17.5 -20l-15 -17t-11.5 -13.5t-9.5 -13t-5.5 -10.5t-4 -10.5t-1 -10.5q0 -25 28 -25q13 0 48 11l6 -81q-43 -20 -86 -20q-40 0 -66.5 23t-26.5 67q0 61 71 120h-398v670h507v-123h-371v-151h342v-121h-342v-152h373v-123z" />
			<glyph glyph-name="eogonek" unicode="&#x119;" horiz-adv-x="571"  d="M541 259v-45h-380q10 -53 45.5 -84.5t84.5 -31.5q78 0 119 50l105 -52q-18 -26 -29 -37l-42 -49l-17.5 -20l-15 -17t-11.5 -13.5t-9.5 -13t-5.5 -10.5t-4 -10.5t-1 -10.5q0 -25 28 -25q13 0 48 11l6 -81q-43 -20 -86 -20q-40 0 -66.5 23t-26.5 67q0 50 46 97 q-26 -2 -38 -2q-111 0 -186 74t-75 190t74.5 190.5t183.5 74.5q102 0 175.5 -71.5t77.5 -183.5zM288 399q-41 0 -76.5 -24t-46.5 -68h241q-13 46 -44.5 69t-73.5 23z" />
			<glyph glyph-name="Ecaron" unicode="&#x11a;" horiz-adv-x="634"  d="M278 729l-113 149h130l46 -62l45 62h132l-115 -149h-125zM206 123h373v-123h-509v670h507v-123h-371v-151h342v-121h-342v-152z" />
			<glyph glyph-name="ecaron" unicode="&#x11b;" horiz-adv-x="571"  d="M228 558l-113 149h130l46 -62l45 62h132l-115 -149h-125zM541 259v-45h-380q10 -53 45.5 -84.5t84.5 -31.5q78 0 119 50l105 -52q-71 -111 -224 -111q-111 0 -186 74t-75 190t74.5 190.5t183.5 74.5q102 0 175.5 -71.5t77.5 -183.5zM288 399q-41 0 -76.5 -24t-46.5 -68 h241q-13 46 -44.5 69t-73.5 23z" />
			<glyph glyph-name="Gbreve" unicode="&#x11e;" horiz-adv-x="776"  d="M399 719q-77 0 -122 40.5t-45 109.5h109q0 -26 16.5 -42.5t41.5 -16.5t41.5 16.5t16.5 42.5h109q0 -69 -45 -109.5t-122 -40.5zM733 391q3 -35 3 -58q0 -150 -96 -249t-244 -99q-150 0 -253 101t-103 249q0 147 104 248.5t252 101.5q79 0 147 -30t114 -85l-112 -77 q-55 64 -149 64q-91 0 -154.5 -64t-63.5 -158q0 -95 64 -159t158 -64q76 0 130 41.5t71 113.5h-175v124h307z" />
			<glyph glyph-name="gbreve" unicode="&#x11f;" horiz-adv-x="627"  d="M303 548q-77 0 -122 40.5t-45 109.5h109q0 -26 16.5 -42.5t41.5 -16.5t41.5 16.5t16.5 42.5h109q0 -69 -45 -109.5t-122 -40.5zM556 499l1 -451q0 -112 -76.5 -175t-201.5 -63q-136 0 -209 70l82 98q61 -49 125 -49q68 0 110 37.5t42 101.5v8q-57 -46 -157 -46 q-96 0 -169 71t-73 172q0 100 73 170.5t169 70.5q98 0 157 -46v31h127zM295 143q54 0 94 36.5t40 93.5t-40 93.5t-94 36.5q-60 0 -99 -36t-39 -94t39 -94t99 -36z" />
			<glyph glyph-name="Gdotaccent" unicode="&#x120;" horiz-adv-x="776"  d="M398 743q-34 0 -55.5 21.5t-21.5 54.5q0 31 22 53t55 22t55.5 -22t22.5 -53q0 -33 -22 -54.5t-56 -21.5zM733 391q3 -35 3 -58q0 -150 -96 -249t-244 -99q-150 0 -253 101t-103 249q0 147 104 248.5t252 101.5q79 0 147 -30t114 -85l-112 -77q-55 64 -149 64 q-91 0 -154.5 -64t-63.5 -158q0 -95 64 -159t158 -64q76 0 130 41.5t71 113.5h-175v124h307z" />
			<glyph glyph-name="gdotaccent" unicode="&#x121;" horiz-adv-x="627"  d="M302 572q-34 0 -55.5 21.5t-21.5 54.5q0 31 22 53t55 22t55.5 -22t22.5 -53q0 -33 -22 -54.5t-56 -21.5zM556 499l1 -451q0 -112 -76.5 -175t-201.5 -63q-136 0 -209 70l82 98q61 -49 125 -49q68 0 110 37.5t42 101.5v8q-57 -46 -157 -46q-96 0 -169 71t-73 172 q0 100 73 170.5t169 70.5q98 0 157 -46v31h127zM295 143q54 0 94 36.5t40 93.5t-40 93.5t-94 36.5q-60 0 -99 -36t-39 -94t39 -94t99 -36z" />
			<glyph glyph-name="Gcommaaccent" unicode="&#x122;" horiz-adv-x="776"  d="M733 391q3 -35 3 -58q0 -150 -96 -249t-244 -99q-150 0 -253 101t-103 249q0 147 104 248.5t252 101.5q79 0 147 -30t114 -85l-112 -77q-55 64 -149 64q-91 0 -154.5 -64t-63.5 -158q0 -95 64 -159t158 -64q76 0 130 41.5t71 113.5h-175v124h307zM267 -195l53 150h143 l-97 -150h-99z" />
			<glyph glyph-name="gcommaaccent" unicode="&#x123;" horiz-adv-x="627"  d="M436 714l-53 -150h-143l97 150h99zM556 499l1 -451q0 -112 -76.5 -175t-201.5 -63q-136 0 -209 70l82 98q61 -49 125 -49q68 0 110 37.5t42 101.5v8q-57 -46 -157 -46q-96 0 -169 71t-73 172q0 100 73 170.5t169 70.5q98 0 157 -46v31h127zM295 143q54 0 94 36.5t40 93.5 t-40 93.5t-94 36.5q-60 0 -99 -36t-39 -94t39 -94t99 -36z" />
			<glyph glyph-name="Hbar" unicode="&#x126;" horiz-adv-x="772"  d="M738 558v-113h-62v-445h-136v235h-312v-235h-136v445h-62v113h62v112h136v-112h312v112h136v-112h62zM540 358v87h-312v-87h312z" />
			<glyph glyph-name="hbar" unicode="&#x127;" horiz-adv-x="637"  d="M379 514q90 0 145 -58.5t55 -151.5v-304h-132v276q0 53 -27.5 85t-73.5 32q-124 0 -124 -172v-221h-132v562h-60v96h60v62h132v-62h146v-96h-146v-108q60 60 157 60z" />
			<glyph glyph-name="Imacron" unicode="&#x12a;" horiz-adv-x="276"  d="M297 851v-108h-318v108h318zM206 670v-670h-136v670h136z" />
			<glyph glyph-name="imacron" unicode="&#x12b;" horiz-adv-x="296"  d="M307 680v-108h-318v108h318zM214 499v-499h-132v499h132z" />
			<glyph glyph-name="Iogonek" unicode="&#x12e;" horiz-adv-x="276"  d="M218 -109l6 -81q-43 -20 -86 -20q-40 0 -66.5 23t-26.5 67q0 61 71 120h-46v670h136v-670l-17.5 -20l-15 -17t-11.5 -13.5t-9.5 -13t-5.5 -10.5t-4 -10.5t-1 -10.5q0 -25 28 -25q13 0 48 11z" />
			<glyph glyph-name="iogonek" unicode="&#x12f;" horiz-adv-x="296"  d="M147 572q-34 0 -55.5 21.5t-21.5 54.5q0 31 22 53t55 22t55.5 -22t22.5 -53q0 -33 -22 -54.5t-56 -21.5zM226 -109l6 -81q-43 -20 -86 -20q-40 0 -66.5 23t-26.5 67q0 61 71 120h-42v499h132v-499l-17.5 -20l-15 -17t-11.5 -13.5t-9.5 -13t-5.5 -10.5t-4 -10.5t-1 -10.5 q0 -25 28 -25q13 0 48 11z" />
			<glyph glyph-name="Idotaccent" unicode="&#x130;" horiz-adv-x="276"  d="M137 894q33 0 55.5 -22t22.5 -53q0 -33 -22 -54.5t-56 -21.5t-55.5 21.5t-21.5 54.5q0 31 22 53t55 22zM206 670v-670h-136v670h136z" />
			<glyph glyph-name="dotlessi" unicode="&#x131;" horiz-adv-x="296"  d="M214 499v-499h-132v499h132z" />
			<glyph glyph-name="IJ" unicode="&#x132;" horiz-adv-x="872"  d="M70 0v670h136v-670h-136zM672 670h136v-433q0 -110 -72 -181t-188 -71q-106 0 -173.5 60t-83.5 159l129 26q7 -55 40 -89t88 -34t89.5 37t34.5 93v433z" />
			<glyph glyph-name="ij" unicode="&#x133;" horiz-adv-x="583"  d="M143 727q34 0 57 -23.5t23 -55.5q0 -33 -23 -55t-57 -22q-35 0 -57.5 22t-22.5 55q0 32 23 55.5t57 23.5zM440 727q34 0 57 -23.5t23 -55.5q0 -33 -23 -55t-57 -22q-35 0 -57.5 22t-22.5 55q0 32 23 55.5t57 23.5zM209 499v-499h-132v499h132zM284 -46q28 -10 45 -10 q21 0 34 11t13 28v516h132v-534q0 -65 -40 -105t-106 -40q-51 0 -102 19z" />
			<glyph glyph-name="Kcommaaccent" unicode="&#x136;" horiz-adv-x="643"  d="M332 334l311 -334h-181l-242 268h-14v-268h-136v670h136v-279h14l250 279h154zM200 -195l53 150h143l-97 -150h-99z" />
			<glyph glyph-name="kcommaaccent" unicode="&#x137;" horiz-adv-x="597"  d="M310 264l287 -264h-189l-201 195h-5v-195h-132v720h132v-395h8l189 174h172zM181 -195l53 150h143l-97 -150h-99z" />
			<glyph glyph-name="Lacute" unicode="&#x139;" horiz-adv-x="592"  d="M305 882l-109 -144h-112l66 144h155zM206 123h346v-123h-482v670h136v-547z" />
			<glyph glyph-name="lacute" unicode="&#x13a;" horiz-adv-x="272"  d="M305 932l-109 -144h-112l66 144h155zM202 720v-720h-132v720h132z" />
			<glyph glyph-name="Lcommaaccent" unicode="&#x13b;" horiz-adv-x="592"  d="M206 123h346v-123h-482v670h136v-547zM173 -195l53 150h143l-97 -150h-99z" />
			<glyph glyph-name="lcommaaccent" unicode="&#x13c;" horiz-adv-x="272"  d="M202 720v-720h-132v720h132zM112 -195h-99l53 150h143z" />
			<glyph glyph-name="Lcaron" unicode="&#x13d;" horiz-adv-x="592"  d="M206 123h346v-123h-482v670h136v-547zM431 670l-29 -199h-104v199h133z" />
			<glyph glyph-name="lcaron" unicode="&#x13e;" horiz-adv-x="272"  d="M202 720v-720h-132v720h132zM392 720l-29 -199h-104v199h133z" />
			<glyph glyph-name="Ldot" unicode="&#x13f;" horiz-adv-x="582"  d="M206 123h346v-123h-482v670h136v-547zM408 276q-34 0 -55.5 21.5t-21.5 54.5q0 31 22 53t55 22t55.5 -22t22.5 -53q0 -33 -22 -54.5t-56 -21.5z" />
			<glyph glyph-name="ldot" unicode="&#x140;" horiz-adv-x="401"  d="M202 720v-720h-132v720h132zM318 427q33 0 55.5 -22t22.5 -53q0 -33 -22 -54.5t-56 -21.5t-55.5 21.5t-21.5 54.5q0 31 22 53t55 22z" />
			<glyph glyph-name="Lslash" unicode="&#x141;" horiz-adv-x="602"  d="M226 123h346v-123h-482v214l-60 -28v127l60 28v329h136v-265l124 58v-127l-124 -58v-155z" />
			<glyph glyph-name="lslash" unicode="&#x142;" horiz-adv-x="321"  d="M291 483v-127l-64 -37v-319h-132v243l-65 -37v127l65 37v350h132v-274z" />
			<glyph glyph-name="Nacute" unicode="&#x143;" horiz-adv-x="761"  d="M555 882l-109 -144h-112l66 144h155zM555 670h136v-670h-114l-371 430v-430h-136v670h114l371 -442v442z" />
			<glyph glyph-name="nacute" unicode="&#x144;" horiz-adv-x="616"  d="M482 711l-109 -144h-112l66 144h155zM359 514q90 0 145 -58.5t55 -151.5v-304h-132v276q0 53 -27.5 85t-73.5 32q-124 0 -124 -172v-221h-132v499h132v-45q60 60 157 60z" />
			<glyph glyph-name="Ncommaaccent" unicode="&#x145;" horiz-adv-x="761"  d="M555 670h136v-670h-114l-371 430v-430h-136v670h114l371 -442v442zM278 -195l53 150h143l-97 -150h-99z" />
			<glyph glyph-name="ncommaaccent" unicode="&#x146;" horiz-adv-x="616"  d="M359 514q90 0 145 -58.5t55 -151.5v-304h-132v276q0 53 -27.5 85t-73.5 32q-124 0 -124 -172v-221h-132v499h132v-45q60 60 157 60zM194 -195l53 150h143l-97 -150h-99z" />
			<glyph glyph-name="Ncaron" unicode="&#x147;" horiz-adv-x="761"  d="M324 729l-113 149h130l46 -62l45 62h132l-115 -149h-125zM555 670h136v-670h-114l-371 430v-430h-136v670h114l371 -442v442z" />
			<glyph glyph-name="ncaron" unicode="&#x148;" horiz-adv-x="616"  d="M251 558l-113 149h130l46 -62l45 62h132l-115 -149h-125zM359 514q90 0 145 -58.5t55 -151.5v-304h-132v276q0 53 -27.5 85t-73.5 32q-124 0 -124 -172v-221h-132v499h132v-45q60 60 157 60z" />
			<glyph glyph-name="Eng" unicode="&#x14a;" horiz-adv-x="741"  d="M555 670h136v-696q0 -66 -40.5 -110t-105.5 -44q-57 0 -118 24l23 101q39 -11 62 -11q21 0 34 11t13 29v47l-353 409v-430h-136v670h114l371 -442v442z" />
			<glyph glyph-name="eng" unicode="&#x14b;" horiz-adv-x="617"  d="M359 514q90 0 145 -58.5t55 -151.5v-330q0 -66 -40.5 -110t-105.5 -44q-57 0 -118 24l23 101q38 -11 62 -11q21 0 34 11t13 29v302q0 53 -27.5 85t-73.5 32q-124 0 -124 -172v-221h-132v499h132v-45q60 60 157 60z" />
			<glyph glyph-name="Omacron" unicode="&#x14c;" horiz-adv-x="786"  d="M552 851v-108h-318v108h318zM393 685q148 0 250.5 -102t102.5 -249q0 -146 -102.5 -247.5t-250.5 -101.5t-250.5 101.5t-102.5 247.5q0 147 102.5 249t250.5 102zM393 113q91 0 153.5 63t62.5 158t-62.5 159t-153.5 64t-153.5 -64t-62.5 -159t62.5 -158t153.5 -63z" />
			<glyph glyph-name="omacron" unicode="&#x14d;" horiz-adv-x="601"  d="M461 680v-108h-318v108h318zM302 511q112 0 190.5 -73.5t78.5 -188.5t-78.5 -188.5t-190.5 -73.5q-114 0 -193 73.5t-79 188.5t79 188.5t193 73.5zM302 100q55 0 98 41.5t43 107.5t-43 107.5t-98 41.5q-57 0 -100.5 -41t-43.5 -108t43.5 -108t100.5 -41z" />
			<glyph glyph-name="Ohungarumlaut" unicode="&#x150;" horiz-adv-x="786"  d="M467 882l-111 -144h-118l66 144h163zM542 738h-118l66 144h163zM393 685q148 0 250.5 -102t102.5 -249q0 -146 -102.5 -247.5t-250.5 -101.5t-250.5 101.5t-102.5 247.5q0 147 102.5 249t250.5 102zM393 113q91 0 153.5 63t62.5 158t-62.5 159t-153.5 64t-153.5 -64 t-62.5 -159t62.5 -158t153.5 -63z" />
			<glyph glyph-name="ohungarumlaut" unicode="&#x151;" horiz-adv-x="601"  d="M376 711l-111 -144h-118l66 144h163zM451 567h-118l66 144h163zM302 511q112 0 190.5 -73.5t78.5 -188.5t-78.5 -188.5t-190.5 -73.5q-114 0 -193 73.5t-79 188.5t79 188.5t193 73.5zM302 100q55 0 98 41.5t43 107.5t-43 107.5t-98 41.5q-57 0 -100.5 -41t-43.5 -108 t43.5 -108t100.5 -41z" />
			<glyph glyph-name="OE" unicode="&#x152;" horiz-adv-x="1030"  d="M602 123h373v-123h-557q-168 0 -273 94t-105 241t105 241t273 94h555v-123h-371v-151h342v-121h-342v-152zM418 123h48v424h-48q-111 0 -176 -58t-65 -154t65 -154t176 -58z" />
			<glyph glyph-name="oe" unicode="&#x153;" horiz-adv-x="984"  d="M954 259v-45h-380q10 -53 45.5 -84.5t84.5 -31.5q78 0 119 50l105 -52q-71 -111 -224 -111q-125 0 -199 88q-80 -86 -203 -86q-114 0 -193 73.5t-79 188.5t79 188.5t193 73.5q125 0 203 -86q75 89 196 89q102 0 175.5 -71.5t77.5 -183.5zM701 399q-41 0 -76.5 -24 t-46.5 -68h241q-13 46 -44.5 69t-73.5 23zM302 100q55 0 98 41.5t43 107.5t-43 107.5t-98 41.5q-57 0 -100.5 -41t-43.5 -108t43.5 -108t100.5 -41z" />
			<glyph glyph-name="Racute" unicode="&#x154;" horiz-adv-x="674"  d="M484 882l-109 -144h-112l66 144h155zM462 227l182 -227h-171l-159 216h-108v-216h-136v670h306q113 0 184 -62.5t71 -164.5q0 -80 -45.5 -137.5t-123.5 -78.5zM206 547v-208h170q52 0 86 29t34 75t-34 75t-86 29h-170z" />
			<glyph glyph-name="racute" unicode="&#x155;" horiz-adv-x="429"  d="M396 711l-109 -144h-112l66 144h155zM381 506q23 0 35 -4l-7 -127h-29q-178 0 -178 -214v-161h-132v499h132v-91q68 98 179 98z" />
			<glyph glyph-name="Rcommaaccent" unicode="&#x156;" horiz-adv-x="674"  d="M462 227l182 -227h-171l-159 216h-108v-216h-136v670h306q113 0 184 -62.5t71 -164.5q0 -80 -45.5 -137.5t-123.5 -78.5zM206 547v-208h170q52 0 86 29t34 75t-34 75t-86 29h-170zM198 -195l53 150h143l-97 -150h-99z" />
			<glyph glyph-name="rcommaaccent" unicode="&#x157;" horiz-adv-x="429"  d="M381 506q23 0 35 -4l-7 -127h-29q-178 0 -178 -214v-161h-132v499h132v-91q68 98 179 98zM13 -195l53 150h143l-97 -150h-99z" />
			<glyph glyph-name="Rcaron" unicode="&#x158;" horiz-adv-x="674"  d="M253 729l-113 149h130l46 -62l45 62h132l-115 -149h-125zM462 227l182 -227h-171l-159 216h-108v-216h-136v670h306q113 0 184 -62.5t71 -164.5q0 -80 -45.5 -137.5t-123.5 -78.5zM206 547v-208h170q52 0 86 29t34 75t-34 75t-86 29h-170z" />
			<glyph glyph-name="rcaron" unicode="&#x159;" horiz-adv-x="429"  d="M165 558l-113 149h130l46 -62l45 62h132l-115 -149h-125zM381 506q23 0 35 -4l-7 -127h-29q-178 0 -178 -214v-161h-132v499h132v-91q68 98 179 98z" />
			<glyph glyph-name="Sacute" unicode="&#x15a;" horiz-adv-x="641"  d="M499 882l-109 -144h-112l66 144h155zM325 -15q-98 0 -172 40.5t-99 117.5l138 55q32 -94 146 -94q57 0 88 24t31 61q0 30 -17.5 47t-60.5 26l-132 27q-176 35 -176 192q0 91 69 147.5t186 56.5q86 0 151.5 -37.5t96.5 -104.5l-130 -43q-17 32 -49 50t-72 18 q-49 0 -79 -24t-30 -59q0 -54 67 -68l134 -29q84 -18 130 -67t46 -125q0 -97 -73 -154t-193 -57z" />
			<glyph glyph-name="sacute" unicode="&#x15b;" horiz-adv-x="503"  d="M427 711l-109 -144h-112l66 144h155zM163 149q15 -58 101 -58q36 0 57 14t21 36q0 33 -55 45l-97 21q-68 15 -104.5 51.5t-36.5 90.5q0 73 55.5 119t148.5 46q76 0 130.5 -31.5t76.5 -84.5l-122 -36q-22 48 -89 48q-36 0 -52 -14.5t-16 -34.5q0 -32 45 -42l114 -26 q64 -15 97.5 -52t33.5 -89q0 -81 -59.5 -124t-159.5 -43q-78 0 -136.5 28t-79.5 84z" />
			<glyph glyph-name="Scedilla" unicode="&#x15e;" horiz-adv-x="641"  d="M591 196q0 -85 -57 -140t-154 -68l-49 -148h-140l88 147q-82 9 -142.5 49t-82.5 107l138 55q32 -94 146 -94q57 0 88 24t31 61q0 30 -17.5 47t-60.5 26l-132 27q-176 35 -176 192q0 91 69 147.5t186 56.5q86 0 151.5 -37.5t96.5 -104.5l-130 -43q-17 32 -49 50t-72 18 q-49 0 -79 -24t-30 -59q0 -54 67 -68l134 -29q84 -18 130 -67t46 -125z" />
			<glyph glyph-name="scedilla" unicode="&#x15f;" horiz-adv-x="503"  d="M471 152q0 -67 -41 -108t-113 -54l-50 -150h-140l88 147q-65 6 -113 33.5t-66 76.5l127 52q15 -58 101 -58q36 0 57 14t21 36q0 33 -55 45l-97 21q-68 15 -104.5 51.5t-36.5 90.5q0 73 55.5 119t148.5 46q76 0 130.5 -31.5t76.5 -84.5l-122 -36q-22 48 -89 48 q-36 0 -52 -14.5t-16 -34.5q0 -32 45 -42l114 -26q64 -15 97.5 -52t33.5 -89z" />
			<glyph glyph-name="Scaron" unicode="&#x160;" horiz-adv-x="641"  d="M268 729l-113 149h130l46 -62l45 62h132l-115 -149h-125zM415 388q84 -18 130 -67t46 -125q0 -97 -73 -154t-193 -57q-98 0 -172 40.5t-99 117.5l138 55q32 -94 146 -94q57 0 88 24t31 61q0 30 -17.5 47t-60.5 26l-132 27q-176 35 -176 192q0 91 69 147.5t186 56.5 q86 0 151.5 -37.5t96.5 -104.5l-130 -43q-17 32 -49 50t-72 18q-49 0 -79 -24t-30 -59q0 -54 67 -68z" />
			<glyph glyph-name="scaron" unicode="&#x161;" horiz-adv-x="503"  d="M196 558l-113 149h130l46 -62l45 62h132l-115 -149h-125zM340 293q64 -15 97.5 -52t33.5 -89q0 -81 -59.5 -124t-159.5 -43q-78 0 -136.5 28t-79.5 84l127 52q15 -58 101 -58q36 0 57 14t21 36q0 33 -55 45l-97 21q-68 15 -104.5 51.5t-36.5 90.5q0 73 55.5 119t148.5 46 q76 0 130.5 -31.5t76.5 -84.5l-122 -36q-22 48 -89 48q-36 0 -52 -14.5t-16 -34.5q0 -32 45 -42z" />
			<glyph glyph-name="uni0163" unicode="&#x163;" horiz-adv-x="434"  d="M433 22q-63 -34 -115 -37l-48 -145h-140l94 156q-117 38 -117 188v207h-107v108h107v151h132v-151h163v-108h-163v-197q0 -86 73 -86q38 0 83 24z" />
			<glyph glyph-name="Tcaron" unicode="&#x164;" horiz-adv-x="622"  d="M249 729l-113 149h130l46 -62l45 62h132l-115 -149h-125zM602 670v-123h-223v-547h-136v547h-223v123h582z" />
			<glyph glyph-name="tcaron" unicode="&#x165;" horiz-adv-x="434"  d="M424 739l-29 -199h-104v199h133zM395 132l38 -110q-69 -37 -130 -37q-92 0 -144 49.5t-52 149.5v207h-107v108h107v151h132v-151h163v-108h-163v-197q0 -86 73 -86q38 0 83 24z" />
			<glyph glyph-name="Tbar" unicode="&#x166;" horiz-adv-x="622"  d="M602 547h-223v-156h121v-113h-121v-278h-136v278h-121v113h121v156h-223v123h582v-123z" />
			<glyph glyph-name="tbar" unicode="&#x167;" horiz-adv-x="444"  d="M405 132l38 -110q-69 -37 -130 -37q-92 0 -144 49.5t-52 149.5v55h-102v106h102v46h-117v108h117v151h132v-151h153v-108h-153v-46h104v-106h-104v-45q0 -86 73 -86q38 0 83 24z" />
			<glyph glyph-name="Umacron" unicode="&#x16a;" horiz-adv-x="711"  d="M514 851v-108h-318v108h318zM511 670h136v-370q0 -141 -79 -228t-209 -87q-133 0 -214 87t-81 228v370h136v-370q0 -84 43.5 -134.5t115.5 -50.5q68 0 110 50.5t42 134.5v370z" />
			<glyph glyph-name="umacron" unicode="&#x16b;" horiz-adv-x="616"  d="M464 680v-108h-318v108h318zM414 499h132v-499h-132v45q-60 -60 -157 -60q-90 0 -145 58.5t-55 151.5v304h132v-276q0 -53 27.5 -85t73.5 -32q124 0 124 172v221z" />
			<glyph glyph-name="Uring" unicode="&#x16e;" horiz-adv-x="711"  d="M355 715q-50 0 -84.5 33.5t-34.5 81.5t34.5 81.5t84.5 33.5t84.5 -33.5t34.5 -81.5t-34.5 -81.5t-84.5 -33.5zM355 870q-18 0 -30 -11.5t-12 -28.5t12 -28.5t30 -11.5t30 11.5t12 28.5t-12 28.5t-30 11.5zM511 670h136v-370q0 -141 -79 -228t-209 -87q-133 0 -214 87 t-81 228v370h136v-370q0 -84 43.5 -134.5t115.5 -50.5q68 0 110 50.5t42 134.5v370z" />
			<glyph glyph-name="uring" unicode="&#x16f;" horiz-adv-x="616"  d="M305 544q-50 0 -84.5 33.5t-34.5 81.5t34.5 81.5t84.5 33.5t84.5 -33.5t34.5 -81.5t-34.5 -81.5t-84.5 -33.5zM305 699q-18 0 -30 -11.5t-12 -28.5t12 -28.5t30 -11.5t30 11.5t12 28.5t-12 28.5t-30 11.5zM414 499h132v-499h-132v45q-60 -60 -157 -60q-90 0 -145 58.5 t-55 151.5v304h132v-276q0 -53 27.5 -85t73.5 -32q124 0 124 172v221z" />
			<glyph glyph-name="Uhungarumlaut" unicode="&#x170;" horiz-adv-x="711"  d="M429 882l-111 -144h-118l66 144h163zM504 738h-118l66 144h163zM511 670h136v-370q0 -141 -79 -228t-209 -87q-133 0 -214 87t-81 228v370h136v-370q0 -84 43.5 -134.5t115.5 -50.5q68 0 110 50.5t42 134.5v370z" />
			<glyph glyph-name="uhungarumlaut" unicode="&#x171;" horiz-adv-x="616"  d="M379 711l-111 -144h-118l66 144h163zM454 567h-118l66 144h163zM414 278v221h132v-499h-132v45q-60 -60 -157 -60q-90 0 -145 58.5t-55 151.5v304h132v-276q0 -53 27.5 -85t73.5 -32q124 0 124 172z" />
			<glyph glyph-name="Uogonek" unicode="&#x172;" horiz-adv-x="711"  d="M546 50l-54 -53.5t-26.5 -36.5t-12.5 -44q0 -13 9 -21.5t23 -8.5t58 15l25 -82q-61 -31 -118 -31q-46 0 -75.5 24.5t-29.5 63.5q0 61 48 111q-22 -2 -34 -2q-132 0 -213.5 84.5t-81.5 221.5v379h136v-379q0 -80 43.5 -128t115.5 -48q68 0 110 48.5t42 127.5v379h136v-379 q0 -143 -101 -241z" />
			<glyph glyph-name="uogonek" unicode="&#x173;" horiz-adv-x="616"  d="M559 -109l6 -81q-43 -20 -86 -20q-40 0 -66.5 23t-26.5 67q0 61 71 120h-43v45q-60 -60 -157 -60q-90 0 -145 58.5t-55 151.5v304h132v-276q0 -53 27.5 -85t73.5 -32q124 0 124 172v221h132v-499h1l-17.5 -20l-15 -17t-11.5 -13.5t-9.5 -13t-5.5 -10.5t-4 -10.5t-1 -10.5 q0 -25 28 -25q13 0 48 11z" />
			<glyph glyph-name="Wcircumflex" unicode="&#x174;" horiz-adv-x="962"  d="M482 791l-46 -62h-130l113 149h125l115 -149h-132zM809 670h143l-195 -670h-146l-130 452l-131 -452h-145l-195 670h142l128 -462l135 462h131l135 -462z" />
			<glyph glyph-name="wcircumflex" unicode="&#x175;" horiz-adv-x="787"  d="M395 620l-46 -62h-130l113 149h125l115 -149h-132zM646 499h131l-166 -500h-119l-98 294l-99 -294h-119l-166 500h131l99 -307l102 307h103l102 -308z" />
			<glyph glyph-name="Ycircumflex" unicode="&#x176;" horiz-adv-x="691"  d="M346 791l-46 -62h-130l113 149h125l115 -149h-132zM681 670l-270 -456v-214h-136v212l-265 458h150l183 -316l182 316h156z" />
			<glyph glyph-name="ycircumflex" unicode="&#x177;" horiz-adv-x="584"  d="M292 622l-46 -62h-130l113 149h125l115 -149h-132zM427 500h147l-330 -670h-147l120 244l-207 426h147l136 -272z" />
			<glyph glyph-name="Ydieresis" unicode="&#x178;" horiz-adv-x="691"  d="M237 733q-34 0 -56.5 22t-22.5 56q0 32 22.5 55t56.5 23t57 -23.5t23 -54.5q0 -34 -22.5 -56t-57.5 -22zM453 733q-34 0 -56.5 22t-22.5 56q0 32 22.5 55t56.5 23t57 -23.5t23 -54.5q0 -34 -22.5 -56t-57.5 -22zM681 670l-270 -456v-214h-136v212l-265 458h150l183 -316 l182 316h156z" />
			<glyph glyph-name="Zacute" unicode="&#x179;" horiz-adv-x="625"  d="M487 882l-109 -144h-112l66 144h155zM240 116h343v-116h-536v87l356 467h-346v116h519v-103z" />
			<glyph glyph-name="zacute" unicode="&#x17a;" horiz-adv-x="523"  d="M436 711l-109 -144h-112l66 144h155zM203 108h280v-108h-443v86l268 305h-261v108h424v-88z" />
			<glyph glyph-name="Zdotaccent" unicode="&#x17b;" horiz-adv-x="625"  d="M317 743q-34 0 -55.5 21.5t-21.5 54.5q0 31 22 53t55 22t55.5 -22t22.5 -53q0 -33 -22 -54.5t-56 -21.5zM240 116h343v-116h-536v87l356 467h-346v116h519v-103z" />
			<glyph glyph-name="zdotaccent" unicode="&#x17c;" horiz-adv-x="523"  d="M266 572q-34 0 -55.5 21.5t-21.5 54.5q0 31 22 53t55 22t55.5 -22t22.5 -53q0 -33 -22 -54.5t-56 -21.5zM203 108h280v-108h-443v86l268 305h-261v108h424v-88z" />
			<glyph glyph-name="Zcaron" unicode="&#x17d;" horiz-adv-x="625"  d="M256 729l-113 149h130l46 -62l45 62h132l-115 -149h-125zM240 116h343v-116h-536v87l356 467h-346v116h519v-103z" />
			<glyph glyph-name="zcaron" unicode="&#x17e;" horiz-adv-x="523"  d="M205 558l-113 149h130l46 -62l45 62h132l-115 -149h-125zM203 108h280v-108h-443v86l268 305h-261v108h424v-88z" />
			<glyph glyph-name="florin" unicode="&#x192;" horiz-adv-x="586"  d="M445 567q-35 0 -59 -21t-31 -61l-18 -101h154v-108h-174l-49 -269q-14 -79 -67 -125.5t-130 -46.5q-49 0 -101 28l42 106q33 -10 60 -10q25 0 43.5 13.5t22.5 34.5l48 269h-104v108h124l18 101q17 92 77.5 145.5t150.5 53.5q66 0 119 -34l-44 -108q-36 25 -82 25z" />
			<glyph glyph-name="AEacute" unicode="&#x1fc;" horiz-adv-x="1041"  d="M835 882l-109 -144h-112l66 144h155zM623 123h373v-123h-509v123h-251l-79 -123h-157l450 670h544v-123h-371v-151h342v-121h-342v-152zM314 246h173v270z" />
			<glyph glyph-name="aeacute" unicode="&#x1fd;" horiz-adv-x="901"  d="M612 711l-109 -144h-112l66 144h155zM871 249v-45h-378q13 -51 46 -78.5t82 -27.5q78 0 119 50l105 -52q-71 -111 -225 -111q-118 0 -194 82q-78 -82 -205 -82q-92 0 -141.5 45.5t-49.5 114.5q0 71 53.5 111.5t148.5 40.5h140v19q0 40 -26.5 64t-69.5 24q-39 0 -65 -20 t-31 -56l-121 25q9 71 68.5 116t150.5 45q110 0 170 -62q73 62 168 62q106 0 180.5 -74t74.5 -191zM492 297h246q-11 53 -43 79.5t-74 26.5q-45 0 -82.5 -28t-46.5 -78zM372 192v12h-140q-37 0 -56.5 -14.5t-19.5 -39.5q0 -27 22.5 -43.5t58.5 -16.5q52 0 93.5 31t41.5 71z " />
			<glyph glyph-name="Scommaaccent" unicode="&#x218;" horiz-adv-x="641"  d="M325 -15q-98 0 -172 40.5t-99 117.5l138 55q32 -94 146 -94q57 0 88 24t31 61q0 30 -17.5 47t-60.5 26l-132 27q-176 35 -176 192q0 91 69 147.5t186 56.5q86 0 151.5 -37.5t96.5 -104.5l-130 -43q-17 32 -49 50t-72 18q-49 0 -79 -24t-30 -59q0 -54 67 -68l134 -29 q84 -18 130 -67t46 -125q0 -97 -73 -154t-193 -57zM303 -195h-99l53 150h143z" />
			<glyph glyph-name="scommaaccent" unicode="&#x219;" horiz-adv-x="503"  d="M163 149q15 -58 101 -58q36 0 57 14t21 36q0 33 -55 45l-97 21q-68 15 -104.5 51.5t-36.5 90.5q0 73 55.5 119t148.5 46q76 0 130.5 -31.5t76.5 -84.5l-122 -36q-22 48 -89 48q-36 0 -52 -14.5t-16 -34.5q0 -32 45 -42l114 -26q64 -15 97.5 -52t33.5 -89 q0 -81 -59.5 -124t-159.5 -43q-78 0 -136.5 28t-79.5 84zM239 -195h-99l53 150h143z" />
			<glyph glyph-name="uni021A" unicode="&#x21a;" horiz-adv-x="622"  d="M602 670v-123h-223v-547h-136v547h-223v123h582zM192 -195l53 150h143l-97 -150h-99z" />
			<glyph glyph-name="uni021B" unicode="&#x21b;" horiz-adv-x="434"  d="M303 -15q-92 0 -144 49.5t-52 149.5v207h-107v108h107v151h132v-151h163v-108h-163v-197q0 -86 73 -86q38 0 83 24l38 -110q-69 -37 -130 -37zM143 -195l53 150h143l-97 -150h-99z" />
			<glyph glyph-name="circumflex" unicode="&#x2c6;" horiz-adv-x="600"  d="M478 558h-132l-45 62l-46 -62h-130l113 149h125z" />
			<glyph glyph-name="caron" unicode="&#x2c7;" horiz-adv-x="600"  d="M346 707h132l-115 -149h-125l-113 149h130l46 -62z" />
			<glyph glyph-name="breve" unicode="&#x2d8;" horiz-adv-x="600"  d="M300 547q-77 0 -122 40.5t-45 109.5h109q0 -26 16.5 -42.5t41.5 -16.5t41.5 16.5t16.5 42.5h109q0 -69 -45 -109.5t-122 -40.5z" />
			<glyph glyph-name="dotaccent" unicode="&#x2d9;" horiz-adv-x="600"  d="M300 723q33 0 55.5 -22t22.5 -53q0 -33 -22 -54.5t-56 -21.5t-55.5 21.5t-21.5 54.5q0 31 22 53t55 22z" />
			<glyph glyph-name="ring" unicode="&#x2da;" horiz-adv-x="600"  d="M419 659q0 -48 -34.5 -81.5t-84.5 -33.5t-84.5 33.5t-34.5 81.5t34.5 81.5t84.5 33.5t84.5 -33.5t34.5 -81.5zM342 659q0 17 -12 28.5t-30 11.5t-30 -11.5t-12 -28.5t12 -28.5t30 -11.5t30 11.5t12 28.5z" />
			<glyph glyph-name="ogonek" unicode="&#x2db;" horiz-adv-x="600"  d="M332 0l-17.5 -20l-15 -17t-11.5 -13.5t-9.5 -13t-5.5 -10.5t-4 -10.5t-1 -10.5q0 -25 28 -25q13 0 48 11l6 -81q-43 -20 -86 -20q-40 0 -66.5 23t-26.5 67q0 61 71 120h90z" />
			<glyph glyph-name="tilde" unicode="&#x2dc;" horiz-adv-x="600"  d="M136 585q0 71 32 101t75 30q36 0 69.5 -19.5t52.5 -19.5q13 0 20.5 11.5t7.5 27.5h87q0 -72 -32 -102.5t-75 -30.5q-37 0 -70 19t-52 19q-13 0 -20.5 -10.5t-7.5 -25.5h-87z" />
			<glyph glyph-name="hungarumlaut" unicode="&#x2dd;" horiz-adv-x="600"  d="M334 711l-111 -144h-118l66 144h163zM520 711l-111 -144h-118l66 144h163z" />
			<glyph glyph-name="uni0326" unicode="&#x326;" horiz-adv-x="0"  d="M-300 -195h-99l53 150h143z" />
			<glyph glyph-name="Wgrave" unicode="&#x1e80;" horiz-adv-x="962"  d="M535 738h-112l-109 144h155zM809 670h143l-195 -670h-146l-130 452l-131 -452h-145l-195 670h142l128 -462l135 462h131l135 -462z" />
			<glyph glyph-name="wgrave" unicode="&#x1e81;" horiz-adv-x="787"  d="M448 567h-112l-109 144h155zM646 499h131l-166 -500h-119l-98 294l-99 -294h-119l-166 500h131l99 -307l102 307h103l102 -308z" />
			<glyph glyph-name="Wacute" unicode="&#x1e82;" horiz-adv-x="962"  d="M650 882l-109 -144h-112l66 144h155zM809 670h143l-195 -670h-146l-130 452l-131 -452h-145l-195 670h142l128 -462l135 462h131l135 -462z" />
			<glyph glyph-name="wacute" unicode="&#x1e83;" horiz-adv-x="787"  d="M563 711l-109 -144h-112l66 144h155zM646 499h131l-166 -500h-119l-98 294l-99 -294h-119l-166 500h131l99 -307l102 307h103l102 -308z" />
			<glyph glyph-name="Wdieresis" unicode="&#x1e84;" horiz-adv-x="962"  d="M373 733q-34 0 -56.5 22t-22.5 56q0 32 22.5 55t56.5 23t57 -23.5t23 -54.5q0 -34 -22.5 -56t-57.5 -22zM589 733q-34 0 -56.5 22t-22.5 56q0 32 22.5 55t56.5 23t57 -23.5t23 -54.5q0 -34 -22.5 -56t-57.5 -22zM809 670h143l-195 -670h-146l-130 452l-131 -452h-145 l-195 670h142l128 -462l135 462h131l135 -462z" />
			<glyph glyph-name="wdieresis" unicode="&#x1e85;" horiz-adv-x="787"  d="M286 562q-34 0 -56.5 22t-22.5 56q0 32 22.5 55t56.5 23t57 -23.5t23 -54.5q0 -34 -22.5 -56t-57.5 -22zM502 562q-34 0 -56.5 22t-22.5 56q0 32 22.5 55t56.5 23t57 -23.5t23 -54.5q0 -34 -22.5 -56t-57.5 -22zM646 499h131l-166 -500h-119l-98 294l-99 -294h-119 l-166 500h131l99 -307l102 307h103l102 -308z" />
			<glyph glyph-name="Ygrave" unicode="&#x1ef2;" horiz-adv-x="691"  d="M399 738h-112l-109 144h155zM681 670l-270 -456v-214h-136v212l-265 458h150l183 -316l182 316h156z" />
			<glyph glyph-name="ygrave" unicode="&#x1ef3;" horiz-adv-x="584"  d="M345 569h-112l-109 144h155zM427 500h147l-330 -670h-147l120 244l-207 426h147l136 -272z" />
			<glyph glyph-name="endash" unicode="&#x2013;" horiz-adv-x="620"  d="M560 305v-100h-500v100h500z" />
			<glyph glyph-name="emdash" unicode="&#x2014;" horiz-adv-x="1040"  d="M980 305v-100h-920v100h920z" />
			<glyph glyph-name="quoteleft" unicode="&#x2018;" horiz-adv-x="282"  d="M35 405l113 265h99l-60 -268h-152v3z" />
			<glyph glyph-name="quoteright" unicode="&#x2019;" horiz-adv-x="282"  d="M247 667l-113 -265h-99l60 268h152v-3z" />
			<glyph glyph-name="quotesinglbase" unicode="&#x201a;" horiz-adv-x="282"  d="M247 133l-113 -265h-99l60 268h152v-3z" />
			<glyph glyph-name="quotedblleft" unicode="&#x201c;" horiz-adv-x="472"  d="M35 405l113 265h99l-60 -268h-152v3zM225 405l113 265h99l-60 -268h-152v3z" />
			<glyph glyph-name="quotedblright" unicode="&#x201d;" horiz-adv-x="472"  d="M247 667l-113 -265h-99l60 268h152v-3zM437 667l-113 -265h-99l60 268h152v-3z" />
			<glyph glyph-name="quotedblbase" unicode="&#x201e;" horiz-adv-x="472"  d="M247 133l-113 -265h-99l60 268h152v-3zM437 133l-113 -265h-99l60 268h152v-3z" />
			<glyph glyph-name="dagger" unicode="&#x2020;" horiz-adv-x="405"  d="M248 650h112v-84h-112v-247h-91v247h-112v84h112v90h91v-90z" />
			<glyph glyph-name="daggerdbl" unicode="&#x2021;" horiz-adv-x="405"  d="M360 566h-112v-73h112v-84h-112v-90h-91v90h-112v84h112v73h-112v84h112v90h91v-90h112v-84z" />
			<glyph glyph-name="bullet" unicode="&#x2022;" horiz-adv-x="422"  d="M211 424q73 0 122 -49.5t49 -116.5q0 -70 -48.5 -117.5t-122.5 -47.5t-122.5 47.5t-48.5 117.5q0 67 49 116.5t122 49.5z" />
			<glyph glyph-name="ellipsis" unicode="&#x2026;" horiz-adv-x="778"  d="M119 149q34 0 56.5 -23t22.5 -54q0 -32 -22.5 -54t-56.5 -22t-56.5 22t-22.5 54q0 31 22.5 54t56.5 23zM389 149q34 0 56.5 -23t22.5 -54q0 -32 -22.5 -54t-56.5 -22t-56.5 22t-22.5 54q0 31 22.5 54t56.5 23zM659 149q34 0 56.5 -23t22.5 -54q0 -32 -22.5 -54t-56.5 -22 t-56.5 22t-22.5 54q0 31 22.5 54t56.5 23z" />
			<glyph glyph-name="perthousand" unicode="&#x2030;" horiz-adv-x="1233"  d="M208 685q70 0 118.5 -45t48.5 -117t-49 -117t-118 -45q-70 0 -119 45t-49 117t49 117t119 45zM212 0h-87l491 670h87zM208 595q-28 0 -48.5 -19.5t-20.5 -51.5q0 -34 20.5 -53.5t48.5 -19.5q27 0 47.5 19.5t20.5 53.5q0 32 -20.5 51.5t-47.5 19.5zM626 309 q70 0 118.5 -45t48.5 -117t-49 -117t-118 -45q-70 0 -119 45t-49 117t49 117t119 45zM1026 309q70 0 118.5 -45t48.5 -117t-49 -117t-118 -45q-70 0 -119 45t-49 117t49 117t119 45zM626 219q-28 0 -48.5 -19.5t-20.5 -51.5q0 -34 20.5 -53.5t48.5 -19.5q27 0 47.5 19.5 t20.5 53.5q0 32 -20.5 51.5t-47.5 19.5zM1026 219q-28 0 -48.5 -19.5t-20.5 -51.5q0 -34 20.5 -53.5t48.5 -19.5q27 0 47.5 19.5t20.5 53.5q0 32 -20.5 51.5t-47.5 19.5z" />
			<glyph glyph-name="guilsinglleft" unicode="&#x2039;" horiz-adv-x="292"  d="M137 84l-112 178l112 178h130l-112 -178l112 -178h-130z" />
			<glyph glyph-name="guilsinglright" unicode="&#x203a;" horiz-adv-x="292"  d="M155 84h-130l112 178l-112 178h130l112 -178z" />
			<glyph glyph-name="fraction" unicode="&#x2044;" horiz-adv-x="238"  d="M-93 0h-87l491 670h87z" />
			<glyph glyph-name="Euro" unicode="&#x20ac;" horiz-adv-x="779"  d="M458 112q106 0 147 137l134 -29q-27 -108 -101.5 -171.5t-179.5 -63.5q-103 0 -177.5 62.5t-101.5 169.5h-109v96h95v22v22h-95v95h109q27 108 101 170.5t178 62.5q105 0 179.5 -63.5t101.5 -171.5l-139 -27q-14 68 -52.5 102t-89.5 34q-95 0 -136 -107h210l-23 -95h-205 q-1 -7 -1 -22t1 -22h195l-23 -96h-153q19 -49 54 -77t81 -28z" />
			<glyph glyph-name="uni2116" unicode="&#x2116;" horiz-adv-x="1199"  d="M949 338q-73 0 -125 48t-52 123t52 123t125 48q76 0 128 -48t52 -123t-52 -123t-128 -48zM555 228v442h136v-670h-114l-371 430v-430h-136v670h114zM949 584q-29 0 -50.5 -21.5t-21.5 -53.5t21.5 -53.5t50.5 -21.5q32 0 54 21.5t22 53.5t-22 53.5t-54 21.5zM782 180v107 h337v-107h-337z" />
			<glyph glyph-name="uni2117" unicode="&#x2117;" horiz-adv-x="756"  d="M375 685q146 0 248 -100t102 -252q0 -150 -102 -249t-248 -99t-248.5 99t-102.5 249q0 152 102.5 252t248.5 100zM375 42q120 0 204 83t84 209t-84.5 210.5t-203.5 84.5q-120 0 -204.5 -84t-84.5 -211q0 -126 84.5 -209t204.5 -83zM412 516q66 0 105 -35.5t39 -93.5 q0 -60 -39 -96.5t-105 -36.5h-91v-103h-79v365h170zM406 327q33 0 53 16.5t20 43.5q0 26 -20 41.5t-53 15.5h-85v-117h85z" />
			<glyph glyph-name="trademark" unicode="&#x2122;" horiz-adv-x="667"  d="M281 670v-64h-86v-208h-76v208h-84v64h246zM622 670v-272h-71v139l-61 -138h-44l-61 138v-139h-71v272h83l71 -152l72 152h82z" />
			<glyph glyph-name="oneeighth" unicode="&#x215b;" horiz-adv-x="809"  d="M93 290v253l-72 -47v102l105 72h63v-380h-96zM570 670h87l-491 -670h-87zM697 197q69 -25 69 -95q0 -49 -42 -80.5t-111 -31.5q-68 0 -110.5 31.5t-42.5 80.5q0 70 68 95q-53 27 -53 82q0 44 40 75t99 31q58 0 98 -31t40 -75q0 -56 -55 -82zM613 315q-23 0 -38 -12.5 t-15 -33.5q0 -18 15.5 -31t37.5 -13t37.5 12.5t15.5 31.5q0 21 -15 33.5t-38 12.5zM613 65q24 0 39.5 13.5t15.5 34.5t-15.5 34.5t-39.5 13.5q-25 0 -40.5 -13t-15.5 -35q0 -21 16 -34.5t40 -13.5z" />
			<glyph glyph-name="threeeighths" unicode="&#x215c;" horiz-adv-x="871"  d="M317 408q0 -53 -41 -88t-105 -35q-63 0 -104 34t-43 91l80 20q5 -65 68 -65q25 0 40 12.5t15 32.5t-14.5 31t-39.5 11h-40v68h33q25 0 41.5 11t16.5 29q0 19 -15 31t-39 12q-57 0 -59 -62l-84 20q5 55 43.5 87t98.5 32q62 0 101.5 -33t39.5 -84q0 -50 -47 -74 q54 -27 54 -81zM632 670h87l-491 -670h-87zM759 197q69 -25 69 -95q0 -49 -42 -80.5t-111 -31.5q-68 0 -110.5 31.5t-42.5 80.5q0 70 68 95q-53 27 -53 82q0 44 40 75t99 31q58 0 98 -31t40 -75q0 -56 -55 -82zM675 315q-23 0 -38 -12.5t-15 -33.5q0 -18 15.5 -31t37.5 -13 t37.5 12.5t15.5 31.5q0 21 -15 33.5t-38 12.5zM675 65q24 0 39.5 13.5t15.5 34.5t-15.5 34.5t-39.5 13.5q-25 0 -40.5 -13t-15.5 -35q0 -21 16 -34.5t40 -13.5z" />
			<glyph glyph-name="fiveeighths" unicode="&#x215d;" horiz-adv-x="840"  d="M322 415q0 -59 -41 -96t-106 -37q-62 0 -103.5 33t-47.5 80l91 17q5 -23 21 -36t39 -13t39 12.5t16 35.5q0 24 -17.5 35.5t-44.5 11.5h-129l31 212h232v-84h-158l-7 -48h60q53 0 89 -33.5t36 -89.5zM616 670h87l-491 -670h-87zM728 197q69 -25 69 -95q0 -49 -42 -80.5 t-111 -31.5q-68 0 -110.5 31.5t-42.5 80.5q0 70 68 95q-53 27 -53 82q0 44 40 75t99 31q58 0 98 -31t40 -75q0 -56 -55 -82zM644 315q-23 0 -38 -12.5t-15 -33.5q0 -18 15.5 -31t37.5 -13t37.5 12.5t15.5 31.5q0 21 -15 33.5t-38 12.5zM644 65q24 0 39.5 13.5t15.5 34.5 t-15.5 34.5t-39.5 13.5q-25 0 -40.5 -13t-15.5 -35q0 -21 16 -34.5t40 -13.5z" />
			<glyph glyph-name="seveneighths" unicode="&#x215e;" horiz-adv-x="757"  d="M54 290l136 296h-183v84h284v-74l-134 -306h-103zM538 670h87l-491 -670h-87zM645 197q69 -25 69 -95q0 -49 -42 -80.5t-111 -31.5q-68 0 -110.5 31.5t-42.5 80.5q0 70 68 95q-53 27 -53 82q0 44 40 75t99 31q58 0 98 -31t40 -75q0 -56 -55 -82zM561 315q-23 0 -38 -12.5 t-15 -33.5q0 -18 15.5 -31t37.5 -13t37.5 12.5t15.5 31.5q0 21 -15 33.5t-38 12.5zM561 65q24 0 39.5 13.5t15.5 34.5t-15.5 34.5t-39.5 13.5q-25 0 -40.5 -13t-15.5 -35q0 -21 16 -34.5t40 -13.5z" />
			<glyph glyph-name="arrowleft" unicode="&#x2190;" horiz-adv-x="727"  d="M687 392v-136h-416l168 -168l-96 -97l-333 333l334 334l96 -97l-169 -169h416z" />
			<glyph glyph-name="arrowup" unicode="&#x2191;" horiz-adv-x="747"  d="M707 344l-97 -96l-168 168v-416h-136v416l-169 -169l-97 96l334 334z" />
			<glyph glyph-name="arrowright" unicode="&#x2192;" horiz-adv-x="727"  d="M383 658l334 -334l-333 -333l-96 97l168 168h-416v136h416l-169 169z" />
			<glyph glyph-name="arrowdown" unicode="&#x2193;" horiz-adv-x="747"  d="M610 422l97 -96l-333 -333l-334 334l97 96l169 -169v416h136v-416z" />
			<glyph glyph-name="uni2196" unicode="&#x2196;" horiz-adv-x="747"  d="M707 89l-96 -97l-445 446v-260h-136v492h491l-1 -136h-258z" />
			<glyph glyph-name="uni2197" unicode="&#x2197;" horiz-adv-x="747"  d="M226 670h491v-492h-136v260l-445 -446l-96 97l445 445h-258z" />
			<glyph glyph-name="uni2198" unicode="&#x2198;" horiz-adv-x="747"  d="M581 492h136v-492h-491l1 136h258l-445 445l96 97l445 -446v260z" />
			<glyph glyph-name="uni2199" unicode="&#x2199;" horiz-adv-x="747"  d="M262 136h258l1 -136h-491v492h136v-260l445 446l96 -97z" />
			<glyph glyph-name="minus" unicode="&#x2212;" horiz-adv-x="580"  d="M520 363v-116h-460v116h460z" />
			<glyph glyph-name="approxequal" unicode="&#x2248;" horiz-adv-x="580"  d="M520 347q-38 -19 -102 -19q-53 0 -121.5 22t-118.5 22q-83 0 -118 -29v108q39 30 118 30q51 0 122 -22t120 -22q66 0 100 19v-109zM520 201q-40 -20 -102 -20q-53 0 -121.5 22.5t-118.5 22.5q-81 0 -118 -29v108q39 30 118 30q51 0 122 -22t120 -22q65 0 100 18v-108z " />
			<glyph glyph-name="notequal" unicode="&#x2260;" horiz-adv-x="580"  d="M520 363h-149l-46 -83h195v-115h-257l-38 -69h-117l38 69h-86v115h148l46 83h-194v115h256l40 73h117l-40 -73h87v-115z" />
			<glyph glyph-name="lessequal" unicode="&#x2264;" horiz-adv-x="429"  d="M392 342v-131l-359 121v128l359 122v-135l-219 -51zM33 198h359v-115h-359v115z" />
			<glyph glyph-name="greaterequal" unicode="&#x2265;" horiz-adv-x="429"  d="M40 342l219 54l-219 51v135l359 -122v-128l-359 -121v131zM399 198v-115h-359v115h359z" />
			<glyph glyph-name="K.ss03" horiz-adv-x="709"  d="M434 385l275 -385h-168l-197 280l-138 -162v-118h-136v670h136v-374l316 374h155z" />
			<glyph glyph-name="Kcommaaccent.ss03" horiz-adv-x="709"  d="M434 385l275 -385h-168l-197 280l-138 -162v-118h-136v670h136v-374l316 374h155zM250 -195l53 150h143l-97 -150h-99z" />
			<glyph glyph-name="Q.ss04" horiz-adv-x="786"  d="M780 -170h-188l-123 163q-38 -8 -76 -8q-148 0 -250.5 101.5t-102.5 247.5q0 147 102.5 249t250.5 102t250.5 -102t102.5 -249q0 -85 -37.5 -158.5t-102.5 -121.5zM177 334q0 -95 62.5 -158t153.5 -63t153.5 63t62.5 158t-62.5 159t-153.5 64t-153.5 -64t-62.5 -159z" />
			<glyph glyph-name="I.ss05" horiz-adv-x="456"  d="M436 547h-140v-424h140v-123h-416v123h140v424h-140v123h416v-123z" />
			<glyph glyph-name="IJ.ss05" horiz-adv-x="1052"  d="M436 670v-123h-140v-424h140v-123h-416v123h140v424h-140v123h416zM988 670v-433q0 -110 -72 -181t-188 -71q-106 0 -173.5 60t-83.5 159l129 26q7 -55 40 -89t88 -34t89.5 37t34.5 93v310h-206v123h342z" />
			<glyph glyph-name="Iacute.ss05" horiz-adv-x="456"  d="M397 882l-109 -144h-112l66 144h155zM436 547h-140v-424h140v-123h-416v123h140v424h-140v123h416v-123z" />
			<glyph glyph-name="Icircumflex.ss05" horiz-adv-x="456"  d="M229 791l-46 -62h-130l113 149h125l115 -149h-132zM436 547h-140v-424h140v-123h-416v123h140v424h-140v123h416v-123z" />
			<glyph glyph-name="Idieresis.ss05" horiz-adv-x="456"  d="M120 733q-34 0 -56.5 22t-22.5 56q0 32 22.5 55t56.5 23t57 -23.5t23 -54.5q0 -34 -22.5 -56t-57.5 -22zM336 733q-34 0 -56.5 22t-22.5 56q0 32 22.5 55t56.5 23t57 -23.5t23 -54.5q0 -34 -22.5 -56t-57.5 -22zM436 547h-140v-424h140v-123h-416v123h140v424h-140v123 h416v-123z" />
			<glyph glyph-name="Idotaccent.ss05" horiz-adv-x="456"  d="M227 743q-34 0 -55.5 21.5t-21.5 54.5q0 31 22 53t55 22t55.5 -22t22.5 -53q0 -33 -22 -54.5t-56 -21.5zM436 547h-140v-424h140v-123h-416v123h140v424h-140v123h416v-123z" />
			<glyph glyph-name="Igrave.ss05" horiz-adv-x="456"  d="M282 738h-112l-109 144h155zM436 547h-140v-424h140v-123h-416v123h140v424h-140v123h416v-123z" />
			<glyph glyph-name="Imacron.ss05" horiz-adv-x="456"  d="M387 851v-108h-318v108h318zM436 547h-140v-424h140v-123h-416v123h140v424h-140v123h416v-123z" />
			<glyph glyph-name="Iogonek.ss05" horiz-adv-x="456"  d="M436 547h-140v-424h140v-123h-140l-17.5 -20l-15 -17t-11.5 -13.5t-9.5 -13t-5.5 -10.5t-4 -10.5t-1 -10.5q0 -25 28 -25q13 0 48 11l6 -81q-43 -20 -86 -20q-40 0 -66.5 23t-26.5 67q0 61 71 120h-186v123h140v424h-140v123h416v-123z" />
			<glyph glyph-name="J.ss05" horiz-adv-x="596"  d="M532 670v-433q0 -110 -72 -181t-188 -71q-106 0 -173.5 60t-83.5 159l129 26q7 -55 40 -89t88 -34t89.5 37t34.5 93v310h-206v123h342z" />
			<glyph glyph-name="i.loclTRK" horiz-adv-x="296"  d="M147 723q33 0 55.5 -22t22.5 -53q0 -33 -22 -54.5t-56 -21.5t-55.5 21.5t-21.5 54.5q0 31 22 53t55 22zM214 499v-499h-132v499h132z" />
			<glyph glyph-name="germandbls.case" horiz-adv-x="1262"  d="M325 -15q-98 0 -172 40.5t-99 117.5l138 55q32 -94 146 -94q57 0 88 24t31 61q0 30 -17.5 47t-60.5 26l-132 27q-176 35 -176 192q0 91 69 147.5t186 56.5q86 0 151.5 -37.5t96.5 -104.5l-130 -43q-17 32 -49 50t-72 18q-49 0 -79 -24t-30 -59q0 -54 67 -68l134 -29 q84 -18 130 -67t46 -125q0 -97 -73 -154t-193 -57zM946 -15q-98 0 -172 40.5t-99 117.5l138 55q32 -94 146 -94q57 0 88 24t31 61q0 30 -17.5 47t-60.5 26l-132 27q-176 35 -176 192q0 91 69 147.5t186 56.5q86 0 151.5 -37.5t96.5 -104.5l-130 -43q-17 32 -49 50t-72 18 q-49 0 -79 -24t-30 -59q0 -54 67 -68l134 -29q84 -18 130 -67t46 -125q0 -97 -73 -154t-193 -57z" />
			<glyph glyph-name="a.ss01" horiz-adv-x="546"  d="M279 514q101 0 160 -49.5t59 -138.5v-326h-126v41q-58 -56 -152 -56q-86 0 -138 45t-52 118t52.5 116.5t145.5 43.5h144v8q0 38 -23.5 61t-61.5 23q-89 0 -104 -73l-126 25q14 73 75.5 117.5t146.5 44.5zM241 90q53 0 92 32.5t39 79.5v6h-146q-31 0 -50.5 -15.5 t-19.5 -41.5q0 -28 23.5 -44.5t61.5 -16.5z" />
			<glyph glyph-name="aacute.ss01" horiz-adv-x="546"  d="M447 711l-109 -144h-112l66 144h155zM279 514q101 0 160 -49.5t59 -138.5v-326h-126v41q-58 -56 -152 -56q-86 0 -138 45t-52 118t52.5 116.5t145.5 43.5h144v8q0 38 -23.5 61t-61.5 23q-89 0 -104 -73l-126 25q14 73 75.5 117.5t146.5 44.5zM241 90q53 0 92 32.5 t39 79.5v6h-146q-31 0 -50.5 -15.5t-19.5 -41.5q0 -28 23.5 -44.5t61.5 -16.5z" />
			<glyph glyph-name="abreve.ss01" horiz-adv-x="546"  d="M278 548q-77 0 -122 40.5t-45 109.5h109q0 -26 16.5 -42.5t41.5 -16.5t41.5 16.5t16.5 42.5h109q0 -69 -45 -109.5t-122 -40.5zM279 514q101 0 160 -49.5t59 -138.5v-326h-126v41q-58 -56 -152 -56q-86 0 -138 45t-52 118t52.5 116.5t145.5 43.5h144v8q0 38 -23.5 61 t-61.5 23q-89 0 -104 -73l-126 25q14 73 75.5 117.5t146.5 44.5zM241 90q53 0 92 32.5t39 79.5v6h-146q-31 0 -50.5 -15.5t-19.5 -41.5q0 -28 23.5 -44.5t61.5 -16.5z" />
			<glyph glyph-name="acircumflex.ss01" horiz-adv-x="546"  d="M279 620l-46 -62h-130l113 149h125l115 -149h-132zM279 514q101 0 160 -49.5t59 -138.5v-326h-126v41q-58 -56 -152 -56q-86 0 -138 45t-52 118t52.5 116.5t145.5 43.5h144v8q0 38 -23.5 61t-61.5 23q-89 0 -104 -73l-126 25q14 73 75.5 117.5t146.5 44.5zM241 90 q53 0 92 32.5t39 79.5v6h-146q-31 0 -50.5 -15.5t-19.5 -41.5q0 -28 23.5 -44.5t61.5 -16.5z" />
			<glyph glyph-name="adieresis.ss01" horiz-adv-x="546"  d="M170 562q-34 0 -56.5 22t-22.5 56q0 32 22.5 55t56.5 23t57 -23.5t23 -54.5q0 -34 -22.5 -56t-57.5 -22zM386 562q-34 0 -56.5 22t-22.5 56q0 32 22.5 55t56.5 23t57 -23.5t23 -54.5q0 -34 -22.5 -56t-57.5 -22zM279 514q101 0 160 -49.5t59 -138.5v-326h-126v41 q-58 -56 -152 -56q-86 0 -138 45t-52 118t52.5 116.5t145.5 43.5h144v8q0 38 -23.5 61t-61.5 23q-89 0 -104 -73l-126 25q14 73 75.5 117.5t146.5 44.5zM241 90q53 0 92 32.5t39 79.5v6h-146q-31 0 -50.5 -15.5t-19.5 -41.5q0 -28 23.5 -44.5t61.5 -16.5z" />
			<glyph glyph-name="agrave.ss01" horiz-adv-x="546"  d="M332 567h-112l-109 144h155zM279 514q101 0 160 -49.5t59 -138.5v-326h-126v41q-58 -56 -152 -56q-86 0 -138 45t-52 118t52.5 116.5t145.5 43.5h144v8q0 38 -23.5 61t-61.5 23q-89 0 -104 -73l-126 25q14 73 75.5 117.5t146.5 44.5zM241 90q53 0 92 32.5t39 79.5v6h-146 q-31 0 -50.5 -15.5t-19.5 -41.5q0 -28 23.5 -44.5t61.5 -16.5z" />
			<glyph glyph-name="amacron.ss01" horiz-adv-x="546"  d="M437 680v-108h-318v108h318zM279 514q101 0 160 -49.5t59 -138.5v-326h-126v41q-58 -56 -152 -56q-86 0 -138 45t-52 118t52.5 116.5t145.5 43.5h144v8q0 38 -23.5 61t-61.5 23q-89 0 -104 -73l-126 25q14 73 75.5 117.5t146.5 44.5zM241 90q53 0 92 32.5t39 79.5v6h-146 q-31 0 -50.5 -15.5t-19.5 -41.5q0 -28 23.5 -44.5t61.5 -16.5z" />
			<glyph glyph-name="aogonek.ss01" horiz-adv-x="546"  d="M510 -109l6 -81q-43 -20 -86 -20q-40 0 -66.5 23t-26.5 67q0 61 71 120h-36v41q-58 -56 -152 -56q-86 0 -138 45t-52 118t52.5 116.5t145.5 43.5h144v8q0 38 -23.5 61t-61.5 23q-89 0 -104 -73l-126 25q14 73 75.5 117.5t146.5 44.5q101 0 160 -49.5t59 -138.5v-326 l-17.5 -20l-15 -17t-11.5 -13.5t-9.5 -13t-5.5 -10.5t-4 -10.5t-1 -10.5q0 -25 28 -25q13 0 48 11zM241 90q53 0 92 32.5t39 79.5v6h-146q-31 0 -50.5 -15.5t-19.5 -41.5q0 -28 23.5 -44.5t61.5 -16.5z" />
			<glyph glyph-name="aring.ss01" horiz-adv-x="546"  d="M278 544q-50 0 -84.5 33.5t-34.5 81.5t34.5 81.5t84.5 33.5t84.5 -33.5t34.5 -81.5t-34.5 -81.5t-84.5 -33.5zM278 699q-18 0 -30 -11.5t-12 -28.5t12 -28.5t30 -11.5t30 11.5t12 28.5t-12 28.5t-30 11.5zM279 514q101 0 160 -49.5t59 -138.5v-326h-126v41 q-58 -56 -152 -56q-86 0 -138 45t-52 118t52.5 116.5t145.5 43.5h144v8q0 38 -23.5 61t-61.5 23q-89 0 -104 -73l-126 25q14 73 75.5 117.5t146.5 44.5zM241 90q53 0 92 32.5t39 79.5v6h-146q-31 0 -50.5 -15.5t-19.5 -41.5q0 -28 23.5 -44.5t61.5 -16.5z" />
			<glyph glyph-name="atilde.ss01" horiz-adv-x="546"  d="M228 621q-13 0 -20.5 -10.5t-7.5 -25.5h-87q0 71 32 101t75 30q36 0 69.5 -19.5t52.5 -19.5q13 0 20.5 11.5t7.5 27.5h87q0 -72 -32 -102.5t-75 -30.5q-37 0 -70 19t-52 19zM279 514q101 0 160 -49.5t59 -138.5v-326h-126v41q-58 -56 -152 -56q-86 0 -138 45t-52 118 t52.5 116.5t145.5 43.5h144v8q0 38 -23.5 61t-61.5 23q-89 0 -104 -73l-126 25q14 73 75.5 117.5t146.5 44.5zM241 90q53 0 92 32.5t39 79.5v6h-146q-31 0 -50.5 -15.5t-19.5 -41.5q0 -28 23.5 -44.5t61.5 -16.5z" />
			<glyph glyph-name="l.ss02" horiz-adv-x="329"  d="M192 720v-562q0 -22 16 -35.5t41 -13.5t62 14l23 -111q-58 -27 -108 -27q-75 0 -120.5 45.5t-45.5 119.5v570h132z" />
			<glyph glyph-name="lacute.ss02" horiz-adv-x="329"  d="M292 932l-109 -144h-112l66 144h155zM192 720v-562q0 -22 16 -35.5t41 -13.5t62 14l23 -111q-58 -27 -108 -27q-75 0 -120.5 45.5t-45.5 119.5v570h132z" />
			<glyph glyph-name="lcaron.ss02" horiz-adv-x="329"  d="M192 720v-562q0 -22 16 -35.5t41 -13.5t62 14l23 -111q-58 -27 -108 -27q-75 0 -120.5 45.5t-45.5 119.5v570h132zM369 720l-29 -199h-104v199h133z" />
			<glyph glyph-name="lcommaaccent.ss02" horiz-adv-x="329"  d="M192 720v-562q0 -22 16 -35.5t41 -13.5t62 14l23 -111q-58 -27 -108 -27q-75 0 -120.5 45.5t-45.5 119.5v570h132zM175 -195h-99l53 150h143z" />
			<glyph glyph-name="ldot.ss02" horiz-adv-x="411"  d="M202 720v-562q0 -22 16 -35.5t41 -13.5t62 14l23 -111q-58 -27 -108 -27q-75 0 -120.5 45.5t-45.5 119.5v570h132zM328 427q33 0 55.5 -22t22.5 -53q0 -33 -22 -54.5t-56 -21.5t-55.5 21.5t-21.5 54.5q0 31 22 53t55 22z" />
			<glyph glyph-name="lslash.ss02" horiz-adv-x="359"  d="M341 123l23 -111q-58 -27 -108 -27q-75 0 -120.5 45.5t-45.5 119.5v90l-60 -34v127l60 34v353h132v-277l69 40v-127l-69 -40v-158q0 -22 16 -35.5t41 -13.5t62 14z" />
			<glyph glyph-name="k.ss03" horiz-adv-x="617"  d="M372 284l245 -284h-166l-166 189l-83 -92v-97h-132v720h132v-447l210 226h154z" />
			<glyph glyph-name="kcommaaccent.ss03" horiz-adv-x="617"  d="M372 284l245 -284h-166l-166 189l-83 -92v-97h-132v720h132v-447l210 226h154zM206 -195l53 150h143l-97 -150h-99z" />
			<glyph glyph-name="f_j" horiz-adv-x="677"  d="M602 499v-534q0 -65 -40 -105t-106 -40q-51 0 -102 19l24 115q28 -10 45 -10q21 0 34 11t13 28v408h-242v-391h-132v391h-91v108h91v45q0 87 54.5 138t145.5 51q47 0 89 -18l-29 -107q-29 8 -51 8q-35 0 -56 -18.5t-21 -53.5v-45h374zM534 571q-35 0 -57.5 22t-22.5 55 q0 32 23 55.5t57 23.5t57 -23.5t23 -55.5q0 -33 -23 -55t-57 -22z" />
			<glyph glyph-name="f_t" horiz-adv-x="803"  d="M754 132l38 -110q-69 -37 -130 -37q-92 0 -144 49.5t-52 149.5v207h-238v-391h-132v391h-91v108h91v45q0 87 54.5 138t145.5 51q47 0 89 -18l-29 -107q-29 8 -51 8q-35 0 -56 -18.5t-21 -53.5v-45h238v151h132v-151h163v-108h-163v-197q0 -86 73 -86q38 0 83 24z" />
			<glyph glyph-name="fl.ss02" horiz-adv-x="699"  d="M302 616q-33 0 -53.5 -19t-20.5 -53v-45h136v-108h-136v-391h-132v391h-91v108h91v45q0 87 54 138t143 51q48 0 89 -19l-30 -107q-27 9 -50 9zM681 123l23 -111q-58 -27 -108 -27q-75 0 -120.5 45.5t-45.5 119.5v570h132v-562q0 -22 16 -35.5t41 -13.5t62 14z" />
			<glyph glyph-name="zero.tf"  d="M305 685q122 0 197.5 -97t75.5 -253q0 -157 -75.5 -253.5t-197.5 -96.5t-197.5 96.5t-75.5 253.5q0 156 75.5 253t197.5 97zM305 110q62 0 98.5 62t36.5 163t-36.5 162.5t-98.5 61.5t-98.5 -61.5t-36.5 -162.5t36.5 -163t98.5 -62z" />
			<glyph glyph-name="one.tf"  d="M391 123h157v-123h-474v123h185v386l-185 -90v123l233 128h84v-547z" />
			<glyph glyph-name="two.tf"  d="M286 123h253v-123h-456v88l226 224l15.5 15.5l17 17t15.5 16.5t15.5 19l12 19.5t11 23t6 23.5t2.5 27q0 42 -27.5 68.5t-71.5 26.5q-101 0 -110 -123l-124 26q4 98 68.5 156t167.5 58q101 0 164.5 -58t63.5 -151q0 -66 -33.5 -120t-112.5 -132z" />
			<glyph glyph-name="three.tf"  d="M468 337q40 -17 62.5 -53.5t22.5 -84.5q0 -96 -65.5 -155t-171.5 -59q-105 0 -172.5 58t-75.5 154l127 25q16 -119 121 -119q49 0 81 26.5t32 68.5q0 38 -26 59.5t-75 21.5h-97v118h89q47 0 72.5 21t25.5 58q0 41 -28 65.5t-74 24.5q-49 0 -80 -30t-35 -91l-124 25 q8 96 73 155.5t166 59.5q102 0 164.5 -58t62.5 -151q0 -99 -75 -139z" />
			<glyph glyph-name="four.tf"  d="M573 245v-110h-73v-135h-132v135h-325v125l277 410h180v-425h73zM178 245h190v291z" />
			<glyph glyph-name="five.tf"  d="M300 433q106 0 175 -61t69 -158q0 -103 -68.5 -166t-175.5 -63q-97 0 -166.5 46.5t-86.5 132.5l131 35q22 -92 122 -92q46 0 77 29.5t31 77.5q0 43 -31 70.5t-77 27.5h-235l41 358h411v-123h-296l-13 -114h92z" />
			<glyph glyph-name="six.tf"  d="M342 434q107 0 170.5 -61.5t63.5 -159.5q0 -99 -69 -163.5t-177 -64.5q-126 0 -200.5 90t-74.5 250q0 190 90 283q75 77 187 77q86 0 146.5 -41.5t81.5 -117.5l-130 -25q-21 65 -103 65q-55 0 -94 -42q-51 -55 -51 -157q61 67 160 67zM327 106q45 0 79 31t34 78t-34 77.5 t-79 30.5q-44 0 -76.5 -30.5t-32.5 -79.5q0 -47 32.5 -77t76.5 -30z" />
			<glyph glyph-name="seven.tf"  d="M559 670v-97l-270 -573h-152l265 547h-361v123h518z" />
			<glyph glyph-name="eight.tf"  d="M438 339q59 -21 92 -63.5t33 -94.5q0 -87 -69.5 -141.5t-182.5 -54.5q-114 0 -184 54.5t-70 141.5q0 52 33 94t93 64q-105 46 -105 162q0 83 64 133.5t169 50.5q104 0 168 -50.5t64 -133.5q0 -55 -27 -97.5t-78 -64.5zM309 576q-40 0 -68 -23t-28 -64t27.5 -63t68.5 -22 t70.5 23t29.5 64q0 40 -29.5 62.5t-70.5 22.5zM309 98q44 0 75 24.5t31 67.5t-31 66.5t-75 23.5q-43 0 -72.5 -24t-29.5 -68q0 -43 29 -66.5t73 -23.5z" />
			<glyph glyph-name="nine.tf"  d="M280 684q126 0 200.5 -90t74.5 -250q0 -190 -90 -283q-75 -77 -187 -77q-86 0 -146.5 41.5t-81.5 117.5l130 25q21 -65 103 -65q55 0 94 42q51 55 51 157q-61 -67 -160 -67q-107 0 -170.5 61.5t-63.5 159.5q0 99 69 163.5t177 64.5zM283 346q44 0 76.5 30.5t32.5 79.5 q0 47 -32.5 77t-76.5 30q-45 0 -79 -31t-34 -78t34 -77.5t79 -30.5z" />
			<glyph glyph-name="zero.zero.tf"  d="M305 685q122 0 197.5 -97t75.5 -253q0 -157 -75.5 -253.5t-197.5 -96.5t-197.5 96.5t-75.5 253.5q0 156 75.5 253t197.5 97zM305 559q-62 0 -98.5 -61.5t-36.5 -162.5q0 -45 8 -85l207 272q-32 37 -80 37zM305 110q62 0 98.5 62t36.5 163q0 44 -8 84l-207 -272 q34 -37 80 -37z" />
			<glyph glyph-name="zero.zero" horiz-adv-x="650"  d="M333 685q129 0 208.5 -97t79.5 -253q0 -157 -79.5 -253.5t-208.5 -96.5t-208.5 96.5t-79.5 253.5q0 156 79.5 253t208.5 97zM333 560q-68 0 -109 -62t-41 -163q0 -43 8 -81l215 282q-31 24 -73 24zM333 110q68 0 109 62t41 163q0 65 -18 115l-226 -298q39 -42 94 -42z " />
			<glyph glyph-name="zero.dnom" horiz-adv-x="407"  d="M203 386q76 0 122 -54t46 -144t-46 -144t-122 -54q-75 0 -120.5 54t-45.5 144t45.5 144t120.5 54zM203 75q31 0 48 29.5t17 83.5q0 53 -17 82t-48 29q-29 0 -46 -29t-17 -82q0 -54 17 -83.5t46 -29.5z" />
			<glyph glyph-name="one.dnom" horiz-adv-x="251"  d="M189 380v-380h-96v253l-72 -47v102l105 72h63z" />
			<glyph glyph-name="two.dnom" horiz-adv-x="351"  d="M226 126l-51 -42h138v-84h-288v64l143 121q31 27 43 42.5t12 35.5t-14 33t-37 13q-57 0 -60 -71l-82 19q0 60 38.5 96.5t103.5 36.5t104 -33.5t39 -92.5q0 -39 -22 -70t-67 -68z" />
			<glyph glyph-name="three.dnom" horiz-adv-x="347"  d="M263 194q54 -27 54 -81q0 -53 -41 -88t-105 -35q-63 0 -104 34t-43 91l80 20q5 -65 68 -65q25 0 40 12.5t15 32.5t-14.5 31t-39.5 11h-40v68h33q25 0 41.5 11t16.5 29q0 19 -15 31t-39 12q-57 0 -59 -62l-84 20q5 55 43.5 87t98.5 32q62 0 101.5 -33t39.5 -84 q0 -50 -47 -74z" />
			<glyph glyph-name="four.dnom" horiz-adv-x="382"  d="M353 148v-78h-50v-70h-89v70h-194v86l171 224h112v-232h50zM112 148h102v134z" />
			<glyph glyph-name="five.dnom" horiz-adv-x="347"  d="M197 246q53 0 89 -33.5t36 -89.5q0 -59 -41 -96t-106 -37q-62 0 -103.5 33t-47.5 80l91 17q5 -23 21 -36t39 -13t39 12.5t16 35.5q0 24 -17.5 35.5t-44.5 11.5h-129l31 212h232v-84h-158l-7 -48h60z" />
			<glyph glyph-name="six.dnom" horiz-adv-x="349"  d="M198 248q58 0 94.5 -36t36.5 -92q0 -57 -40.5 -93.5t-103.5 -36.5q-77 0 -121 49t-44 138q0 110 55 165q43 43 110 43q57 0 94.5 -28.5t46.5 -80.5l-93 -14q-6 45 -51 45q-26 0 -43 -21t-22 -59q36 21 81 21zM181 66q25 0 42 16.5t17 40.5t-17 41t-42 17t-42 -17t-17 -41 q0 -25 17 -41t42 -16z" />
			<glyph glyph-name="seven.dnom" horiz-adv-x="301"  d="M291 380v-74l-134 -306h-103l136 296h-183v84h284z" />
			<glyph glyph-name="eight.dnom" horiz-adv-x="372"  d="M270 197q69 -25 69 -95q0 -49 -42 -80.5t-111 -31.5q-68 0 -110.5 31.5t-42.5 80.5q0 70 68 95q-53 27 -53 82q0 44 40 75t99 31q58 0 98 -31t40 -75q0 -56 -55 -82zM186 315q-23 0 -38 -12.5t-15 -33.5q0 -18 15.5 -31t37.5 -13t37.5 12.5t15.5 31.5q0 21 -15 33.5 t-38 12.5zM186 65q24 0 39.5 13.5t15.5 34.5t-15.5 34.5t-39.5 13.5q-25 0 -40.5 -13t-15.5 -35q0 -21 16 -34.5t40 -13.5z" />
			<glyph glyph-name="nine.dnom" horiz-adv-x="349"  d="M164 385q77 0 121 -49t44 -138q0 -110 -55 -165q-43 -43 -110 -43q-57 0 -94.5 28.5t-46.5 80.5l93 14q6 -45 51 -45q25 0 43 21q17 21 22 59q-36 -21 -81 -21q-58 0 -94.5 36t-36.5 92q0 57 40.5 93.5t103.5 36.5zM168 194q25 0 42 17t17 41q0 25 -17 41t-42 16 t-42 -16.5t-17 -40.5t17 -41t42 -17z" />
			<glyph glyph-name="zero.numr" horiz-adv-x="407"  d="M203 680q76 0 122 -54t46 -144t-46 -144t-122 -54q-75 0 -120.5 54t-45.5 144t45.5 144t120.5 54zM203 369q31 0 48 29.5t17 83.5q0 53 -17 82t-48 29q-29 0 -46 -29t-17 -82q0 -54 17 -83.5t46 -29.5z" />
			<glyph glyph-name="one.numr" horiz-adv-x="251"  d="M189 670v-380h-96v253l-72 -47v102l105 72h63z" />
			<glyph glyph-name="two.numr" horiz-adv-x="351"  d="M226 416l-51 -42h138v-84h-288v64l143 121q31 27 43 42.5t12 35.5t-14 33t-37 13q-57 0 -60 -71l-82 19q0 60 38.5 96.5t103.5 36.5t104 -33.5t39 -92.5q0 -39 -22 -70t-67 -68z" />
			<glyph glyph-name="three.numr" horiz-adv-x="347"  d="M263 489q54 -27 54 -81q0 -53 -41 -88t-105 -35q-63 0 -104 34t-43 91l80 20q5 -65 68 -65q25 0 40 12.5t15 32.5t-14.5 31t-39.5 11h-40v68h33q25 0 41.5 11t16.5 29q0 19 -15 31t-39 12q-57 0 -59 -62l-84 20q5 55 43.5 87t98.5 32q62 0 101.5 -33t39.5 -84 q0 -50 -47 -74z" />
			<glyph glyph-name="four.numr" horiz-adv-x="382"  d="M353 438v-78h-50v-70h-89v70h-194v86l171 224h112v-232h50zM112 438h102v134z" />
			<glyph glyph-name="five.numr" horiz-adv-x="347"  d="M197 538q53 0 89 -33.5t36 -89.5q0 -59 -41 -96t-106 -37q-62 0 -103.5 33t-47.5 80l91 17q5 -23 21 -36t39 -13t39 12.5t16 35.5q0 24 -17.5 35.5t-44.5 11.5h-129l31 212h232v-84h-158l-7 -48h60z" />
			<glyph glyph-name="six.numr" horiz-adv-x="349"  d="M198 543q58 0 94.5 -36t36.5 -92q0 -57 -40.5 -93.5t-103.5 -36.5q-77 0 -121 49t-44 138q0 110 55 165q43 43 110 43q57 0 94.5 -28.5t46.5 -80.5l-93 -14q-6 45 -51 45q-26 0 -43 -21t-22 -59q36 21 81 21zM181 361q25 0 42 16.5t17 40.5t-17 41t-42 17t-42 -17 t-17 -41q0 -25 17 -41t42 -16z" />
			<glyph glyph-name="seven.numr" horiz-adv-x="301"  d="M291 670v-74l-134 -306h-103l136 296h-183v84h284z" />
			<glyph glyph-name="eight.numr" horiz-adv-x="372"  d="M270 492q69 -25 69 -95q0 -49 -42 -80.5t-111 -31.5q-68 0 -110.5 31.5t-42.5 80.5q0 70 68 95q-53 26 -53 82q0 44 40 75t99 31q58 0 98 -31t40 -75q0 -56 -55 -82zM186 610q-23 0 -38 -12.5t-15 -33.5q0 -18 15.5 -31t37.5 -13t37.5 12.5t15.5 31.5q0 21 -15 33.5 t-38 12.5zM186 360q24 0 39.5 13.5t15.5 34.5t-15.5 34.5t-39.5 13.5q-25 0 -40.5 -13t-15.5 -35q0 -21 16 -34.5t40 -13.5z" />
			<glyph glyph-name="nine.numr" horiz-adv-x="349"  d="M164 680q77 0 121 -49t44 -138q0 -110 -55 -165q-43 -43 -110 -43q-57 0 -94.5 28.5t-46.5 80.5l93 14q6 -45 51 -45q25 0 43 21q17 21 22 59q-36 -21 -81 -21q-58 0 -94.5 36t-36.5 92q0 57 40.5 93.5t103.5 36.5zM168 489q25 0 42 17t17 41q0 25 -17 41t-42 16 t-42 -16.5t-17 -40.5t17 -41t42 -17z" />
			<glyph glyph-name="backslash.case" horiz-adv-x="418"  d="M155 670l238 -670h-130l-238 670h130z" />
			<glyph glyph-name="periodcentered.case" horiz-adv-x="238"  d="M119 400q34 0 56.5 -23t22.5 -54q0 -32 -22.5 -54t-56.5 -22t-56.5 22t-22.5 54q0 31 22.5 54t56.5 23z" />
			<glyph glyph-name="bullet.case" horiz-adv-x="422"  d="M211 494q73 0 122 -49.5t49 -116.5q0 -70 -48.5 -117.5t-122.5 -47.5t-122.5 47.5t-48.5 117.5q0 67 49 116.5t122 49.5z" />
			<glyph glyph-name="colon.case" horiz-adv-x="238"  d="M119 555q34 0 56.5 -23t22.5 -54q0 -32 -22.5 -54t-56.5 -22t-56.5 22t-22.5 54q0 31 22.5 54t56.5 23zM119 239q34 0 56.5 -23t22.5 -54q0 -32 -22.5 -54t-56.5 -22t-56.5 22t-22.5 54q0 31 22.5 54t56.5 23z" />
			<glyph glyph-name="exclamdown.case" horiz-adv-x="288"  d="M144 521q-34 0 -56.5 23t-22.5 54q0 32 22.5 54t56.5 22t56.5 -22t22.5 -54q0 -31 -22.5 -54t-56.5 -23zM72 0v31l5 420h135l5 -420v-31h-145z" />
			<glyph glyph-name="questiondown.case" horiz-adv-x="495"  d="M249 524q-34 0 -56.5 23t-22.5 54q0 32 22.5 54t56.5 22t56.5 -22t22.5 -54q0 -31 -22.5 -54t-56.5 -23zM347 168l103 -64q-31 -51 -90 -83.5t-133 -32.5q-94 0 -150.5 51.5t-56.5 137.5q0 143 167 186v85h121v-166h-4q-156 -14 -156 -104q0 -35 21.5 -54t58.5 -19 q69 0 119 63z" />
			<glyph glyph-name="semicolon.case" horiz-adv-x="270"  d="M151 555q34 0 56.5 -23t22.5 -54q0 -32 -22.5 -54t-56.5 -22t-56.5 22t-22.5 54q0 31 22.5 54t56.5 23zM222 133l-113 -265h-99l60 268h152v-3z" />
			<glyph glyph-name="slash.case" horiz-adv-x="478"  d="M422 670l-250 -670h-117l250 670h117z" />
			<glyph glyph-name="braceleft.case" horiz-adv-x="424"  d="M249 443q0 -38 -17.5 -66.5t-48.5 -41.5q66 -29 66 -109v-83q0 -32 30 -32h105v-111h-122q-63 0 -101.5 35.5t-38.5 93.5v81q0 27 -17.5 41t-53.5 25l-31 10v98l31 10q36 12 53.5 25t17.5 40v82q0 58 38.5 93.5t101.5 35.5h122v-111h-105q-13 0 -21.5 -9t-8.5 -23v-84z " />
			<glyph glyph-name="braceright.case" horiz-adv-x="424"  d="M373 394l31 -10v-98l-31 -10q-36 -11 -53.5 -25t-17.5 -41v-81q0 -58 -38.5 -93.5t-101.5 -35.5h-122v111h105q30 0 30 32v83q0 80 66 109q-31 13 -48.5 41.5t-17.5 66.5v84q0 14 -8.5 23t-21.5 9h-105v111h122q63 0 101.5 -35.5t38.5 -93.5v-82q0 -27 17.5 -40t53.5 -25 z" />
			<glyph glyph-name="bracketleft.case" horiz-adv-x="405"  d="M365 557h-168v-444h168v-113h-295v670h295v-113z" />
			<glyph glyph-name="bracketright.case" horiz-adv-x="405"  d="M335 670v-670h-295v113h168v444h-168v113h295z" />
			<glyph glyph-name="parenleft.case" horiz-adv-x="336"  d="M296 606q-59 -69 -86.5 -132.5t-27.5 -139.5q0 -75 27.5 -138.5t86.5 -132.5l-83 -80q-173 148 -173 351q0 204 173 352z" />
			<glyph glyph-name="parenright.case" horiz-adv-x="336"  d="M123 686q173 -148 173 -352q0 -203 -173 -351l-83 80q59 69 86.5 132.5t27.5 138.5q0 76 -27.5 139.5t-86.5 132.5z" />
			<glyph glyph-name="emdash.case" horiz-adv-x="1040"  d="M980 380v-100h-920v100h920z" />
			<glyph glyph-name="endash.case" horiz-adv-x="620"  d="M560 380v-100h-500v100h500z" />
			<glyph glyph-name="hyphen.case" horiz-adv-x="448"  d="M388 387v-114h-328v114h328z" />
			<glyph glyph-name="guillemotleft.case" horiz-adv-x="472"  d="M137 144l-112 178l112 178h130l-112 -178l112 -178h-130zM317 144l-112 178l112 178h130l-112 -178l112 -178h-130z" />
			<glyph glyph-name="guillemotright.case" horiz-adv-x="472"  d="M155 144h-130l112 178l-112 178h130l112 -178zM335 144h-130l112 178l-112 178h130l112 -178z" />
			<glyph glyph-name="guilsinglleft.case" horiz-adv-x="292"  d="M137 144l-112 178l112 178h130l-112 -178l112 -178h-130z" />
			<glyph glyph-name="guilsinglright.case" horiz-adv-x="292"  d="M155 144h-130l112 178l-112 178h130l112 -178z" />
			<glyph glyph-name="cent.tf"  d="M535 135q-24 -59 -75 -97t-115 -49v-119h-111v122q-89 20 -146.5 89.5t-57.5 167.5t57.5 168t146.5 90v123h111v-120q62 -11 111 -47.5t76 -92.5l-122 -47q-21 48 -70 64v-275q49 14 75 66zM158 249q0 -48 21.5 -82.5t59.5 -49.5v265q-38 -16 -59.5 -51t-21.5 -82z" />
			<glyph glyph-name="dollar.tf"  d="M555 206q0 -76 -49.5 -127t-135.5 -65v-114h-112v112q-75 9 -129 46t-74 99l128 51q20 -61 80 -80v159l-29 6q-164 33 -164 180q0 75 50.5 125t137.5 62v110h112v-113q123 -25 169 -127l-121 -41q-19 35 -53 51v-149l26 -5q78 -18 121 -63.5t43 -116.5zM203 476 q0 -25 13.5 -40t46.5 -24v135q-60 -19 -60 -71zM365 126q65 17 65 73q0 53 -65 67v-140z" />
			<glyph glyph-name="Euro.tf"  d="M326 112q80 0 122 127l137 -25q-25 -104 -94 -166.5t-165 -62.5q-100 0 -168 59.5t-92 172.5h-50v96h39v22v22h-39v95h50q24 113 92 173t168 60q97 0 165.5 -63.5t93.5 -171.5l-136 -23q-16 66 -48.5 99t-74.5 33q-88 0 -119 -107h185l-23 -95h-176v-22v-22h169l-22 -96 h-133q31 -105 119 -105z" />
			<glyph glyph-name="florin.tf"  d="M479 567q-35 0 -59 -21t-31 -61l-18 -101h154v-108h-174l-49 -269q-14 -79 -67 -125.5t-130 -46.5q-49 0 -101 28l42 106q33 -10 60 -10q25 0 43.5 13.5t22.5 34.5l48 269h-104v108h124l18 101q17 92 77.5 145.5t150.5 53.5q66 0 119 -34l-44 -108q-36 25 -82 25z" />
			<glyph glyph-name="sterling.tf"  d="M250 238v-115h323v-123h-541v83l82 24v131h-82v123h82v97q0 102 63.5 164.5t167.5 62.5q102 0 161.5 -60t67.5 -167l-122 -20q-11 64 -36.5 90.5t-70.5 26.5q-43 0 -69 -26.5t-26 -70.5v-97h157v-123h-157z" />
			<glyph glyph-name="yen.tf"  d="M600 670l-184 -332h109v-100h-155v-50h155v-100h-155v-88h-136v88h-149v100h149v50h-149v100h103l-179 332h150l143 -294l142 294h156z" />
			<glyph glyph-name="approxequal.tf"  d="M535 347q-38 -19 -102 -19q-53 0 -121.5 22t-118.5 22q-83 0 -118 -29v108q39 30 118 30q51 0 122 -22t120 -22q66 0 100 19v-109zM535 201q-40 -20 -102 -20q-53 0 -121.5 22.5t-118.5 22.5q-81 0 -118 -29v108q39 30 118 30q51 0 122 -22t120 -22q65 0 100 18v-108z " />
			<glyph glyph-name="divide.tf"  d="M300 547q34 0 56.5 -23t22.5 -54q0 -32 -22.5 -54t-56.5 -22t-56.5 22t-22.5 54q0 31 22.5 54t56.5 23zM535 363v-116h-460v116h460zM300 197q34 0 56.5 -23t22.5 -54q0 -32 -22.5 -54t-56.5 -22t-56.5 22t-22.5 54q0 31 22.5 54t56.5 23z" />
			<glyph glyph-name="equal.tf"  d="M535 478v-115h-460v115h460zM535 280v-115h-460v115h460z" />
			<glyph glyph-name="greater.tf"  d="M129 254l226 75l-226 72v140l379 -143v-140l-379 -141v137z" />
			<glyph glyph-name="greaterequal.tf"  d="M130 342l219 54l-219 51v135l359 -122v-128l-359 -121v131zM489 198v-115h-359v115h359z" />
			<glyph glyph-name="less.tf"  d="M481 254v-137l-379 141v140l379 143v-140l-226 -72z" />
			<glyph glyph-name="lessequal.tf"  d="M482 342v-131l-359 121v128l359 122v-135l-219 -51zM123 198h359v-115h-359v115z" />
			<glyph glyph-name="minus.tf"  d="M535 363v-116h-460v116h460z" />
			<glyph glyph-name="multiply.tf"  d="M522 439l-134 -134l134 -134l-83 -84l-135 135l-135 -135l-83 84l134 134l-134 134l83 84l135 -135l135 135z" />
			<glyph glyph-name="notequal.tf"  d="M535 363h-149l-46 -83h195v-115h-257l-38 -69h-117l38 69h-86v115h148l46 83h-194v115h256l40 73h117l-40 -73h87v-115z" />
			<glyph glyph-name="plus.tf"  d="M535 363v-116h-172v-176h-116v176h-172v116h172v176h116v-176h172z" />
			<glyph glyph-name="plusminus.tf"  d="M363 447h172v-115h-172v-146h-116v146h-172v115h172v166h116v-166zM75 0v115h460v-115h-460z" />
			<glyph glyph-name="bar.case" horiz-adv-x="267"  d="M197 711v-752h-127v752h127z" />
			<glyph glyph-name="at.case" horiz-adv-x="943"  d="M578 513h86v-283q0 -24 17 -38.5t40 -14.5q43 0 65.5 51t22.5 115q0 134 -96 219.5t-236 85.5q-147 0 -245 -95.5t-98 -239.5q0 -143 97 -238t237 -95q136 0 244 81l43 -68q-53 -43 -130 -67.5t-155 -24.5q-176 0 -298 116.5t-122 294.5t122.5 295.5t304.5 117.5 q173 0 294.5 -107.5t121.5 -268.5q0 -44 -10 -86t-30.5 -79.5t-58 -60t-87.5 -22.5q-86 0 -116 60q-51 -59 -140 -59q-88 0 -146 57.5t-58 150.5q0 95 58.5 152.5t144.5 57.5q77 0 128 -49v42zM463 189q47 0 81 33.5t34 88.5t-34 87.5t-81 32.5q-46 0 -80 -32.5t-34 -87.5 q0 -56 34 -89t80 -33z" />
			<glyph glyph-name="caron.alt" horiz-adv-x="600"  d="M386 650l-29 -199h-104v199h133z" />
			</font>
</defs>
</svg>
